G04 #@! TF.GenerationSoftware,KiCad,Pcbnew,9.0.7*
G04 #@! TF.CreationDate,2026-04-14T19:05:39-06:00*
G04 #@! TF.ProjectId,ArduLogger,41726475-4c6f-4676-9765-722e6b696361,rev?*
G04 #@! TF.SameCoordinates,Original*
G04 #@! TF.FileFunction,Paste,Top*
G04 #@! TF.FilePolarity,Positive*
%FSLAX46Y46*%
G04 Gerber Fmt 4.6, Leading zero omitted, Abs format (unit mm)*
G04 Created by KiCad (PCBNEW 9.0.7) date 2026-04-14 19:05:39*
%MOMM*%
%LPD*%
G01*
G04 APERTURE LIST*
G04 Aperture macros list*
%AMRoundRect*
0 Rectangle with rounded corners*
0 $1 Rounding radius*
0 $2 $3 $4 $5 $6 $7 $8 $9 X,Y pos of 4 corners*
0 Add a 4 corners polygon primitive as box body*
4,1,4,$2,$3,$4,$5,$6,$7,$8,$9,$2,$3,0*
0 Add four circle primitives for the rounded corners*
1,1,$1+$1,$2,$3*
1,1,$1+$1,$4,$5*
1,1,$1+$1,$6,$7*
1,1,$1+$1,$8,$9*
0 Add four rect primitives between the rounded corners*
20,1,$1+$1,$2,$3,$4,$5,0*
20,1,$1+$1,$4,$5,$6,$7,0*
20,1,$1+$1,$6,$7,$8,$9,0*
20,1,$1+$1,$8,$9,$2,$3,0*%
G04 Aperture macros list end*
%ADD10RoundRect,0.090000X0.139000X0.090000X-0.139000X0.090000X-0.139000X-0.090000X0.139000X-0.090000X0*%
%ADD11RoundRect,0.090000X-0.090000X0.139000X-0.090000X-0.139000X0.090000X-0.139000X0.090000X0.139000X0*%
%ADD12R,1.500000X0.800000*%
%ADD13R,2.000000X1.450000*%
%ADD14RoundRect,0.090000X0.090000X-0.139000X0.090000X0.139000X-0.090000X0.139000X-0.090000X-0.139000X0*%
%ADD15RoundRect,0.202500X-0.202500X-0.202500X0.202500X-0.202500X0.202500X0.202500X-0.202500X0.202500X0*%
%ADD16RoundRect,0.062500X-0.062500X-0.350000X0.062500X-0.350000X0.062500X0.350000X-0.062500X0.350000X0*%
%ADD17RoundRect,0.062500X-0.350000X-0.062500X0.350000X-0.062500X0.350000X0.062500X-0.350000X0.062500X0*%
%ADD18RoundRect,0.375000X0.375000X-0.625000X0.375000X0.625000X-0.375000X0.625000X-0.375000X-0.625000X0*%
%ADD19RoundRect,0.500000X1.400000X-0.500000X1.400000X0.500000X-1.400000X0.500000X-1.400000X-0.500000X0*%
%ADD20RoundRect,0.150000X-0.875000X-0.150000X0.875000X-0.150000X0.875000X0.150000X-0.875000X0.150000X0*%
G04 APERTURE END LIST*
D10*
G04 #@! TO.C,R3*
X134032500Y-119500000D03*
X133167500Y-119500000D03*
G04 #@! TD*
D11*
G04 #@! TO.C,C4*
X155500000Y-88975000D03*
X155500000Y-89840000D03*
G04 #@! TD*
D12*
G04 #@! TO.C,J1*
X157000000Y-95500000D03*
X157000000Y-96600000D03*
X157000000Y-97700000D03*
X157000000Y-98800000D03*
X157000000Y-99900000D03*
X157000000Y-101000000D03*
X157000000Y-102100000D03*
X157000000Y-103200000D03*
D13*
X159600000Y-91825000D03*
X151300000Y-91825000D03*
X159600000Y-105575000D03*
X151300000Y-105575000D03*
G04 #@! TD*
D11*
G04 #@! TO.C,R6*
X151000000Y-88567500D03*
X151000000Y-89432500D03*
G04 #@! TD*
D14*
G04 #@! TO.C,C6*
X102500000Y-120932500D03*
X102500000Y-120067500D03*
G04 #@! TD*
G04 #@! TO.C,C8*
X97500000Y-124782500D03*
X97500000Y-123917500D03*
G04 #@! TD*
D15*
G04 #@! TO.C,U2*
X123600000Y-119215000D03*
X123600000Y-120215000D03*
D16*
X123350000Y-118027500D03*
D17*
X122412500Y-118465000D03*
X122412500Y-118965000D03*
X122412500Y-119465000D03*
X122412500Y-119965000D03*
X122412500Y-120465000D03*
X122412500Y-120965000D03*
D16*
X123350000Y-121402500D03*
X123850000Y-121402500D03*
D17*
X124787500Y-120965000D03*
X124787500Y-120465000D03*
X124787500Y-119965000D03*
X124787500Y-119465000D03*
X124787500Y-118965000D03*
X124787500Y-118465000D03*
D16*
X123850000Y-118027500D03*
G04 #@! TD*
D18*
G04 #@! TO.C,U4*
X93200000Y-120650000D03*
X95500000Y-120650000D03*
D19*
X95500000Y-114350000D03*
D18*
X97800000Y-120650000D03*
G04 #@! TD*
D10*
G04 #@! TO.C,R5*
X124000000Y-61500000D03*
X123135000Y-61500000D03*
G04 #@! TD*
D14*
G04 #@! TO.C,C7*
X95000000Y-124782500D03*
X95000000Y-123917500D03*
G04 #@! TD*
D11*
G04 #@! TO.C,R4*
X119500000Y-117160000D03*
X119500000Y-118025000D03*
G04 #@! TD*
D10*
G04 #@! TO.C,C2*
X126032500Y-115715000D03*
X125167500Y-115715000D03*
G04 #@! TD*
D20*
G04 #@! TO.C,U1*
X138100000Y-115270000D03*
X138100000Y-116540000D03*
X138100000Y-117810000D03*
X138100000Y-119080000D03*
X138100000Y-120350000D03*
X138100000Y-121620000D03*
X138100000Y-122890000D03*
X138100000Y-124160000D03*
X147400000Y-124160000D03*
X147400000Y-122890000D03*
X147400000Y-121620000D03*
X147400000Y-120350000D03*
X147400000Y-119080000D03*
X147400000Y-117810000D03*
X147400000Y-116540000D03*
X147400000Y-115270000D03*
G04 #@! TD*
D10*
G04 #@! TO.C,C1*
X134032500Y-117215000D03*
X133167500Y-117215000D03*
G04 #@! TD*
D11*
G04 #@! TO.C,R1*
X147100000Y-111782500D03*
X147100000Y-112647500D03*
G04 #@! TD*
G04 #@! TO.C,R2*
X149500000Y-111782500D03*
X149500000Y-112647500D03*
G04 #@! TD*
G04 #@! TO.C,C3*
X126067500Y-62567500D03*
X126067500Y-63432500D03*
G04 #@! TD*
G04 #@! TO.C,C5*
X157500000Y-89042500D03*
X157500000Y-89907500D03*
G04 #@! TD*
M02*
