M48
; DRILL file {KiCad 9.0.7} date 2026-04-14T19:05:39-0600
; FORMAT={-:-/ absolute / metric / decimal}
; #@! TF.CreationDate,2026-04-14T19:05:39-06:00
; #@! TF.GenerationSoftware,Kicad,Pcbnew,9.0.7
; #@! TF.FileFunction,Plated,1,2,PTH
FMAT,2
METRIC
; #@! TA.AperFunction,Plated,PTH,ViaDrill
T1C0.300
; #@! TA.AperFunction,Plated,PTH,ComponentDrill
T2C1.000
; #@! TA.AperFunction,Plated,PTH,ComponentDrill
T3C1.400
%
G90
G05
T1
X81.641Y-98.464
X83.0Y-44.0
X84.5Y-84.0
X87.492Y-57.616
X87.579Y-76.54
X90.417Y-50.671
X90.504Y-71.509
X90.955Y-66.903
X92.111Y-70.511
X93.0Y-122.35
X93.431Y-60.456
X94.5Y-125.85
X95.217Y-112.471
X102.0Y-122.0
X105.5Y-120.0
X109.867Y-68.722
X113.5Y-43.5
X113.5Y-84.5
X117.537Y-117.716
X119.319Y-70.314
X119.677Y-115.689
X119.753Y-86.793
X120.524Y-71.362
X120.882Y-66.646
X123.087Y-121.487
X123.278Y-72.722
X123.289Y-92.629
X123.526Y-115.97
X125.805Y-120.564
X125.968Y-119.355
X126.037Y-118.35
X126.342Y-117.239
X127.0Y-116.0
X128.504Y-113.431
X130.849Y-113.616
X131.381Y-99.243
X132.0Y-45.0
X132.0Y-117.5
X133.904Y-88.932
X137.234Y-96.465
X140.07Y-110.046
X142.303Y-74.119
X142.799Y-109.85
X143.0Y-122.0
X143.085Y-89.711
X143.803Y-84.689
X145.323Y-107.065
X148.166Y-110.356
X148.974Y-83.392
X149.379Y-118.078
X149.867Y-84.614
X150.22Y-89.059
X151.122Y-83.586
X151.862Y-98.464
X152.0Y-107.5
X153.332Y-101.42
X153.5Y-90.0
X154.4Y-48.5
X156.0Y-87.0
X158.0Y-87.0
X160.5Y-90.0
X160.5Y-107.5
T2
X129.5Y-38.0
X129.5Y-40.54
X129.5Y-43.08
X129.5Y-45.62
X129.5Y-48.16
X129.5Y-50.7
X129.5Y-53.24
X129.5Y-55.78
X129.5Y-58.32
X129.5Y-60.86
X129.5Y-63.4
X129.5Y-65.94
X129.5Y-68.48
X129.5Y-71.02
X129.5Y-73.56
X129.5Y-76.1
X149.82Y-48.16
X149.82Y-50.7
X149.82Y-53.24
X149.82Y-55.78
X149.82Y-58.32
X149.82Y-60.86
X149.82Y-63.4
X149.82Y-65.94
X149.82Y-68.48
X149.82Y-71.02
X149.82Y-73.56
X149.82Y-76.1
T3
X84.0Y-36.0
X84.0Y-41.0
X84.0Y-46.0
X84.0Y-51.0
X84.0Y-56.0
X84.0Y-61.0
X84.0Y-66.0
X84.0Y-71.0
X84.0Y-76.0
X84.0Y-81.0
X84.0Y-86.0
X84.0Y-91.0
X84.0Y-96.0
X84.0Y-101.0
X84.0Y-106.0
X112.5Y-35.88
X112.5Y-40.96
X112.5Y-46.04
X112.5Y-51.12
X112.5Y-56.2
X112.5Y-61.28
X112.5Y-66.36
X112.5Y-71.44
X112.5Y-76.52
X112.5Y-81.6
X112.5Y-86.68
X112.5Y-91.76
X112.5Y-96.84
X112.5Y-101.92
X112.5Y-107.0
M30
