G04 #@! TF.GenerationSoftware,KiCad,Pcbnew,9.0.7*
G04 #@! TF.CreationDate,2026-04-14T19:05:39-06:00*
G04 #@! TF.ProjectId,ArduLogger,41726475-4c6f-4676-9765-722e6b696361,rev?*
G04 #@! TF.SameCoordinates,Original*
G04 #@! TF.FileFunction,Legend,Top*
G04 #@! TF.FilePolarity,Positive*
%FSLAX46Y46*%
G04 Gerber Fmt 4.6, Leading zero omitted, Abs format (unit mm)*
G04 Created by KiCad (PCBNEW 9.0.7) date 2026-04-14 19:05:39*
%MOMM*%
%LPD*%
G01*
G04 APERTURE LIST*
G04 Aperture macros list*
%AMRoundRect*
0 Rectangle with rounded corners*
0 $1 Rounding radius*
0 $2 $3 $4 $5 $6 $7 $8 $9 X,Y pos of 4 corners*
0 Add a 4 corners polygon primitive as box body*
4,1,4,$2,$3,$4,$5,$6,$7,$8,$9,$2,$3,0*
0 Add four circle primitives for the rounded corners*
1,1,$1+$1,$2,$3*
1,1,$1+$1,$4,$5*
1,1,$1+$1,$6,$7*
1,1,$1+$1,$8,$9*
0 Add four rect primitives between the rounded corners*
20,1,$1+$1,$2,$3,$4,$5,0*
20,1,$1+$1,$4,$5,$6,$7,0*
20,1,$1+$1,$6,$7,$8,$9,0*
20,1,$1+$1,$8,$9,$2,$3,0*%
G04 Aperture macros list end*
%ADD10C,0.150000*%
%ADD11C,0.120000*%
%ADD12RoundRect,0.100000X0.217500X0.100000X-0.217500X0.100000X-0.217500X-0.100000X0.217500X-0.100000X0*%
%ADD13RoundRect,0.100000X-0.100000X0.217500X-0.100000X-0.217500X0.100000X-0.217500X0.100000X0.217500X0*%
%ADD14RoundRect,0.250000X-1.050000X-0.550000X1.050000X-0.550000X1.050000X0.550000X-1.050000X0.550000X0*%
%ADD15O,2.600000X1.600000*%
%ADD16R,1.500000X0.800000*%
%ADD17R,2.000000X1.450000*%
%ADD18RoundRect,0.100000X0.100000X-0.217500X0.100000X0.217500X-0.100000X0.217500X-0.100000X-0.217500X0*%
%ADD19RoundRect,0.062500X-0.062500X-0.350000X0.062500X-0.350000X0.062500X0.350000X-0.062500X0.350000X0*%
%ADD20RoundRect,0.062500X-0.350000X-0.062500X0.350000X-0.062500X0.350000X0.062500X-0.350000X0.062500X0*%
%ADD21R,1.000000X2.000000*%
%ADD22RoundRect,0.375000X0.375000X-0.625000X0.375000X0.625000X-0.375000X0.625000X-0.375000X-0.625000X0*%
%ADD23RoundRect,0.500000X1.400000X-0.500000X1.400000X0.500000X-1.400000X0.500000X-1.400000X-0.500000X0*%
%ADD24RoundRect,0.249999X1.550001X-0.790001X1.550001X0.790001X-1.550001X0.790001X-1.550001X-0.790001X0*%
%ADD25O,3.600000X2.080000*%
%ADD26RoundRect,0.150000X-0.875000X-0.150000X0.875000X-0.150000X0.875000X0.150000X-0.875000X0.150000X0*%
%ADD27RoundRect,0.250000X1.550000X-0.750000X1.550000X0.750000X-1.550000X0.750000X-1.550000X-0.750000X0*%
%ADD28O,3.600000X2.000000*%
G04 APERTURE END LIST*
D10*
X133433333Y-121004819D02*
X133100000Y-120528628D01*
X132861905Y-121004819D02*
X132861905Y-120004819D01*
X132861905Y-120004819D02*
X133242857Y-120004819D01*
X133242857Y-120004819D02*
X133338095Y-120052438D01*
X133338095Y-120052438D02*
X133385714Y-120100057D01*
X133385714Y-120100057D02*
X133433333Y-120195295D01*
X133433333Y-120195295D02*
X133433333Y-120338152D01*
X133433333Y-120338152D02*
X133385714Y-120433390D01*
X133385714Y-120433390D02*
X133338095Y-120481009D01*
X133338095Y-120481009D02*
X133242857Y-120528628D01*
X133242857Y-120528628D02*
X132861905Y-120528628D01*
X133766667Y-120004819D02*
X134385714Y-120004819D01*
X134385714Y-120004819D02*
X134052381Y-120385771D01*
X134052381Y-120385771D02*
X134195238Y-120385771D01*
X134195238Y-120385771D02*
X134290476Y-120433390D01*
X134290476Y-120433390D02*
X134338095Y-120481009D01*
X134338095Y-120481009D02*
X134385714Y-120576247D01*
X134385714Y-120576247D02*
X134385714Y-120814342D01*
X134385714Y-120814342D02*
X134338095Y-120909580D01*
X134338095Y-120909580D02*
X134290476Y-120957200D01*
X134290476Y-120957200D02*
X134195238Y-121004819D01*
X134195238Y-121004819D02*
X133909524Y-121004819D01*
X133909524Y-121004819D02*
X133814286Y-120957200D01*
X133814286Y-120957200D02*
X133766667Y-120909580D01*
X156909580Y-89574166D02*
X156957200Y-89621785D01*
X156957200Y-89621785D02*
X157004819Y-89764642D01*
X157004819Y-89764642D02*
X157004819Y-89859880D01*
X157004819Y-89859880D02*
X156957200Y-90002737D01*
X156957200Y-90002737D02*
X156861961Y-90097975D01*
X156861961Y-90097975D02*
X156766723Y-90145594D01*
X156766723Y-90145594D02*
X156576247Y-90193213D01*
X156576247Y-90193213D02*
X156433390Y-90193213D01*
X156433390Y-90193213D02*
X156242914Y-90145594D01*
X156242914Y-90145594D02*
X156147676Y-90097975D01*
X156147676Y-90097975D02*
X156052438Y-90002737D01*
X156052438Y-90002737D02*
X156004819Y-89859880D01*
X156004819Y-89859880D02*
X156004819Y-89764642D01*
X156004819Y-89764642D02*
X156052438Y-89621785D01*
X156052438Y-89621785D02*
X156100057Y-89574166D01*
X156338152Y-88717023D02*
X157004819Y-88717023D01*
X155957200Y-88955118D02*
X156671485Y-89193213D01*
X156671485Y-89193213D02*
X156671485Y-88574166D01*
X138945714Y-30549104D02*
X139421904Y-30549104D01*
X138850476Y-30834819D02*
X139183809Y-29834819D01*
X139183809Y-29834819D02*
X139517142Y-30834819D01*
X139802857Y-29930057D02*
X139850476Y-29882438D01*
X139850476Y-29882438D02*
X139945714Y-29834819D01*
X139945714Y-29834819D02*
X140183809Y-29834819D01*
X140183809Y-29834819D02*
X140279047Y-29882438D01*
X140279047Y-29882438D02*
X140326666Y-29930057D01*
X140326666Y-29930057D02*
X140374285Y-30025295D01*
X140374285Y-30025295D02*
X140374285Y-30120533D01*
X140374285Y-30120533D02*
X140326666Y-30263390D01*
X140326666Y-30263390D02*
X139755238Y-30834819D01*
X139755238Y-30834819D02*
X140374285Y-30834819D01*
X162894819Y-99033333D02*
X163609104Y-99033333D01*
X163609104Y-99033333D02*
X163751961Y-99080952D01*
X163751961Y-99080952D02*
X163847200Y-99176190D01*
X163847200Y-99176190D02*
X163894819Y-99319047D01*
X163894819Y-99319047D02*
X163894819Y-99414285D01*
X163894819Y-98033333D02*
X163894819Y-98604761D01*
X163894819Y-98319047D02*
X162894819Y-98319047D01*
X162894819Y-98319047D02*
X163037676Y-98414285D01*
X163037676Y-98414285D02*
X163132914Y-98509523D01*
X163132914Y-98509523D02*
X163180533Y-98604761D01*
X152504819Y-89166666D02*
X152028628Y-89499999D01*
X152504819Y-89738094D02*
X151504819Y-89738094D01*
X151504819Y-89738094D02*
X151504819Y-89357142D01*
X151504819Y-89357142D02*
X151552438Y-89261904D01*
X151552438Y-89261904D02*
X151600057Y-89214285D01*
X151600057Y-89214285D02*
X151695295Y-89166666D01*
X151695295Y-89166666D02*
X151838152Y-89166666D01*
X151838152Y-89166666D02*
X151933390Y-89214285D01*
X151933390Y-89214285D02*
X151981009Y-89261904D01*
X151981009Y-89261904D02*
X152028628Y-89357142D01*
X152028628Y-89357142D02*
X152028628Y-89738094D01*
X151504819Y-88309523D02*
X151504819Y-88499999D01*
X151504819Y-88499999D02*
X151552438Y-88595237D01*
X151552438Y-88595237D02*
X151600057Y-88642856D01*
X151600057Y-88642856D02*
X151742914Y-88738094D01*
X151742914Y-88738094D02*
X151933390Y-88785713D01*
X151933390Y-88785713D02*
X152314342Y-88785713D01*
X152314342Y-88785713D02*
X152409580Y-88738094D01*
X152409580Y-88738094D02*
X152457200Y-88690475D01*
X152457200Y-88690475D02*
X152504819Y-88595237D01*
X152504819Y-88595237D02*
X152504819Y-88404761D01*
X152504819Y-88404761D02*
X152457200Y-88309523D01*
X152457200Y-88309523D02*
X152409580Y-88261904D01*
X152409580Y-88261904D02*
X152314342Y-88214285D01*
X152314342Y-88214285D02*
X152076247Y-88214285D01*
X152076247Y-88214285D02*
X151981009Y-88261904D01*
X151981009Y-88261904D02*
X151933390Y-88309523D01*
X151933390Y-88309523D02*
X151885771Y-88404761D01*
X151885771Y-88404761D02*
X151885771Y-88595237D01*
X151885771Y-88595237D02*
X151933390Y-88690475D01*
X151933390Y-88690475D02*
X151981009Y-88738094D01*
X151981009Y-88738094D02*
X152076247Y-88785713D01*
X101809580Y-120666666D02*
X101857200Y-120714285D01*
X101857200Y-120714285D02*
X101904819Y-120857142D01*
X101904819Y-120857142D02*
X101904819Y-120952380D01*
X101904819Y-120952380D02*
X101857200Y-121095237D01*
X101857200Y-121095237D02*
X101761961Y-121190475D01*
X101761961Y-121190475D02*
X101666723Y-121238094D01*
X101666723Y-121238094D02*
X101476247Y-121285713D01*
X101476247Y-121285713D02*
X101333390Y-121285713D01*
X101333390Y-121285713D02*
X101142914Y-121238094D01*
X101142914Y-121238094D02*
X101047676Y-121190475D01*
X101047676Y-121190475D02*
X100952438Y-121095237D01*
X100952438Y-121095237D02*
X100904819Y-120952380D01*
X100904819Y-120952380D02*
X100904819Y-120857142D01*
X100904819Y-120857142D02*
X100952438Y-120714285D01*
X100952438Y-120714285D02*
X101000057Y-120666666D01*
X100904819Y-119809523D02*
X100904819Y-119999999D01*
X100904819Y-119999999D02*
X100952438Y-120095237D01*
X100952438Y-120095237D02*
X101000057Y-120142856D01*
X101000057Y-120142856D02*
X101142914Y-120238094D01*
X101142914Y-120238094D02*
X101333390Y-120285713D01*
X101333390Y-120285713D02*
X101714342Y-120285713D01*
X101714342Y-120285713D02*
X101809580Y-120238094D01*
X101809580Y-120238094D02*
X101857200Y-120190475D01*
X101857200Y-120190475D02*
X101904819Y-120095237D01*
X101904819Y-120095237D02*
X101904819Y-119904761D01*
X101904819Y-119904761D02*
X101857200Y-119809523D01*
X101857200Y-119809523D02*
X101809580Y-119761904D01*
X101809580Y-119761904D02*
X101714342Y-119714285D01*
X101714342Y-119714285D02*
X101476247Y-119714285D01*
X101476247Y-119714285D02*
X101381009Y-119761904D01*
X101381009Y-119761904D02*
X101333390Y-119809523D01*
X101333390Y-119809523D02*
X101285771Y-119904761D01*
X101285771Y-119904761D02*
X101285771Y-120095237D01*
X101285771Y-120095237D02*
X101333390Y-120190475D01*
X101333390Y-120190475D02*
X101381009Y-120238094D01*
X101381009Y-120238094D02*
X101476247Y-120285713D01*
X96809580Y-124516666D02*
X96857200Y-124564285D01*
X96857200Y-124564285D02*
X96904819Y-124707142D01*
X96904819Y-124707142D02*
X96904819Y-124802380D01*
X96904819Y-124802380D02*
X96857200Y-124945237D01*
X96857200Y-124945237D02*
X96761961Y-125040475D01*
X96761961Y-125040475D02*
X96666723Y-125088094D01*
X96666723Y-125088094D02*
X96476247Y-125135713D01*
X96476247Y-125135713D02*
X96333390Y-125135713D01*
X96333390Y-125135713D02*
X96142914Y-125088094D01*
X96142914Y-125088094D02*
X96047676Y-125040475D01*
X96047676Y-125040475D02*
X95952438Y-124945237D01*
X95952438Y-124945237D02*
X95904819Y-124802380D01*
X95904819Y-124802380D02*
X95904819Y-124707142D01*
X95904819Y-124707142D02*
X95952438Y-124564285D01*
X95952438Y-124564285D02*
X96000057Y-124516666D01*
X96333390Y-123945237D02*
X96285771Y-124040475D01*
X96285771Y-124040475D02*
X96238152Y-124088094D01*
X96238152Y-124088094D02*
X96142914Y-124135713D01*
X96142914Y-124135713D02*
X96095295Y-124135713D01*
X96095295Y-124135713D02*
X96000057Y-124088094D01*
X96000057Y-124088094D02*
X95952438Y-124040475D01*
X95952438Y-124040475D02*
X95904819Y-123945237D01*
X95904819Y-123945237D02*
X95904819Y-123754761D01*
X95904819Y-123754761D02*
X95952438Y-123659523D01*
X95952438Y-123659523D02*
X96000057Y-123611904D01*
X96000057Y-123611904D02*
X96095295Y-123564285D01*
X96095295Y-123564285D02*
X96142914Y-123564285D01*
X96142914Y-123564285D02*
X96238152Y-123611904D01*
X96238152Y-123611904D02*
X96285771Y-123659523D01*
X96285771Y-123659523D02*
X96333390Y-123754761D01*
X96333390Y-123754761D02*
X96333390Y-123945237D01*
X96333390Y-123945237D02*
X96381009Y-124040475D01*
X96381009Y-124040475D02*
X96428628Y-124088094D01*
X96428628Y-124088094D02*
X96523866Y-124135713D01*
X96523866Y-124135713D02*
X96714342Y-124135713D01*
X96714342Y-124135713D02*
X96809580Y-124088094D01*
X96809580Y-124088094D02*
X96857200Y-124040475D01*
X96857200Y-124040475D02*
X96904819Y-123945237D01*
X96904819Y-123945237D02*
X96904819Y-123754761D01*
X96904819Y-123754761D02*
X96857200Y-123659523D01*
X96857200Y-123659523D02*
X96809580Y-123611904D01*
X96809580Y-123611904D02*
X96714342Y-123564285D01*
X96714342Y-123564285D02*
X96523866Y-123564285D01*
X96523866Y-123564285D02*
X96428628Y-123611904D01*
X96428628Y-123611904D02*
X96381009Y-123659523D01*
X96381009Y-123659523D02*
X96333390Y-123754761D01*
X122838095Y-116119819D02*
X122838095Y-116929342D01*
X122838095Y-116929342D02*
X122885714Y-117024580D01*
X122885714Y-117024580D02*
X122933333Y-117072200D01*
X122933333Y-117072200D02*
X123028571Y-117119819D01*
X123028571Y-117119819D02*
X123219047Y-117119819D01*
X123219047Y-117119819D02*
X123314285Y-117072200D01*
X123314285Y-117072200D02*
X123361904Y-117024580D01*
X123361904Y-117024580D02*
X123409523Y-116929342D01*
X123409523Y-116929342D02*
X123409523Y-116119819D01*
X123838095Y-116215057D02*
X123885714Y-116167438D01*
X123885714Y-116167438D02*
X123980952Y-116119819D01*
X123980952Y-116119819D02*
X124219047Y-116119819D01*
X124219047Y-116119819D02*
X124314285Y-116167438D01*
X124314285Y-116167438D02*
X124361904Y-116215057D01*
X124361904Y-116215057D02*
X124409523Y-116310295D01*
X124409523Y-116310295D02*
X124409523Y-116405533D01*
X124409523Y-116405533D02*
X124361904Y-116548390D01*
X124361904Y-116548390D02*
X123790476Y-117119819D01*
X123790476Y-117119819D02*
X124409523Y-117119819D01*
X90454819Y-118261904D02*
X91264342Y-118261904D01*
X91264342Y-118261904D02*
X91359580Y-118214285D01*
X91359580Y-118214285D02*
X91407200Y-118166666D01*
X91407200Y-118166666D02*
X91454819Y-118071428D01*
X91454819Y-118071428D02*
X91454819Y-117880952D01*
X91454819Y-117880952D02*
X91407200Y-117785714D01*
X91407200Y-117785714D02*
X91359580Y-117738095D01*
X91359580Y-117738095D02*
X91264342Y-117690476D01*
X91264342Y-117690476D02*
X90454819Y-117690476D01*
X90788152Y-116785714D02*
X91454819Y-116785714D01*
X90407200Y-117023809D02*
X91121485Y-117261904D01*
X91121485Y-117261904D02*
X91121485Y-116642857D01*
X105954819Y-71773333D02*
X106669104Y-71773333D01*
X106669104Y-71773333D02*
X106811961Y-71820952D01*
X106811961Y-71820952D02*
X106907200Y-71916190D01*
X106907200Y-71916190D02*
X106954819Y-72059047D01*
X106954819Y-72059047D02*
X106954819Y-72154285D01*
X105954819Y-71392380D02*
X105954819Y-70773333D01*
X105954819Y-70773333D02*
X106335771Y-71106666D01*
X106335771Y-71106666D02*
X106335771Y-70963809D01*
X106335771Y-70963809D02*
X106383390Y-70868571D01*
X106383390Y-70868571D02*
X106431009Y-70820952D01*
X106431009Y-70820952D02*
X106526247Y-70773333D01*
X106526247Y-70773333D02*
X106764342Y-70773333D01*
X106764342Y-70773333D02*
X106859580Y-70820952D01*
X106859580Y-70820952D02*
X106907200Y-70868571D01*
X106907200Y-70868571D02*
X106954819Y-70963809D01*
X106954819Y-70963809D02*
X106954819Y-71249523D01*
X106954819Y-71249523D02*
X106907200Y-71344761D01*
X106907200Y-71344761D02*
X106859580Y-71392380D01*
X123400833Y-63004819D02*
X123067500Y-62528628D01*
X122829405Y-63004819D02*
X122829405Y-62004819D01*
X122829405Y-62004819D02*
X123210357Y-62004819D01*
X123210357Y-62004819D02*
X123305595Y-62052438D01*
X123305595Y-62052438D02*
X123353214Y-62100057D01*
X123353214Y-62100057D02*
X123400833Y-62195295D01*
X123400833Y-62195295D02*
X123400833Y-62338152D01*
X123400833Y-62338152D02*
X123353214Y-62433390D01*
X123353214Y-62433390D02*
X123305595Y-62481009D01*
X123305595Y-62481009D02*
X123210357Y-62528628D01*
X123210357Y-62528628D02*
X122829405Y-62528628D01*
X124305595Y-62004819D02*
X123829405Y-62004819D01*
X123829405Y-62004819D02*
X123781786Y-62481009D01*
X123781786Y-62481009D02*
X123829405Y-62433390D01*
X123829405Y-62433390D02*
X123924643Y-62385771D01*
X123924643Y-62385771D02*
X124162738Y-62385771D01*
X124162738Y-62385771D02*
X124257976Y-62433390D01*
X124257976Y-62433390D02*
X124305595Y-62481009D01*
X124305595Y-62481009D02*
X124353214Y-62576247D01*
X124353214Y-62576247D02*
X124353214Y-62814342D01*
X124353214Y-62814342D02*
X124305595Y-62909580D01*
X124305595Y-62909580D02*
X124257976Y-62957200D01*
X124257976Y-62957200D02*
X124162738Y-63004819D01*
X124162738Y-63004819D02*
X123924643Y-63004819D01*
X123924643Y-63004819D02*
X123829405Y-62957200D01*
X123829405Y-62957200D02*
X123781786Y-62909580D01*
X94309580Y-124516666D02*
X94357200Y-124564285D01*
X94357200Y-124564285D02*
X94404819Y-124707142D01*
X94404819Y-124707142D02*
X94404819Y-124802380D01*
X94404819Y-124802380D02*
X94357200Y-124945237D01*
X94357200Y-124945237D02*
X94261961Y-125040475D01*
X94261961Y-125040475D02*
X94166723Y-125088094D01*
X94166723Y-125088094D02*
X93976247Y-125135713D01*
X93976247Y-125135713D02*
X93833390Y-125135713D01*
X93833390Y-125135713D02*
X93642914Y-125088094D01*
X93642914Y-125088094D02*
X93547676Y-125040475D01*
X93547676Y-125040475D02*
X93452438Y-124945237D01*
X93452438Y-124945237D02*
X93404819Y-124802380D01*
X93404819Y-124802380D02*
X93404819Y-124707142D01*
X93404819Y-124707142D02*
X93452438Y-124564285D01*
X93452438Y-124564285D02*
X93500057Y-124516666D01*
X93404819Y-124183332D02*
X93404819Y-123516666D01*
X93404819Y-123516666D02*
X94404819Y-123945237D01*
X121004819Y-117759166D02*
X120528628Y-118092499D01*
X121004819Y-118330594D02*
X120004819Y-118330594D01*
X120004819Y-118330594D02*
X120004819Y-117949642D01*
X120004819Y-117949642D02*
X120052438Y-117854404D01*
X120052438Y-117854404D02*
X120100057Y-117806785D01*
X120100057Y-117806785D02*
X120195295Y-117759166D01*
X120195295Y-117759166D02*
X120338152Y-117759166D01*
X120338152Y-117759166D02*
X120433390Y-117806785D01*
X120433390Y-117806785D02*
X120481009Y-117854404D01*
X120481009Y-117854404D02*
X120528628Y-117949642D01*
X120528628Y-117949642D02*
X120528628Y-118330594D01*
X120338152Y-116902023D02*
X121004819Y-116902023D01*
X119957200Y-117140118D02*
X120671485Y-117378213D01*
X120671485Y-117378213D02*
X120671485Y-116759166D01*
X125433333Y-117124580D02*
X125385714Y-117172200D01*
X125385714Y-117172200D02*
X125242857Y-117219819D01*
X125242857Y-117219819D02*
X125147619Y-117219819D01*
X125147619Y-117219819D02*
X125004762Y-117172200D01*
X125004762Y-117172200D02*
X124909524Y-117076961D01*
X124909524Y-117076961D02*
X124861905Y-116981723D01*
X124861905Y-116981723D02*
X124814286Y-116791247D01*
X124814286Y-116791247D02*
X124814286Y-116648390D01*
X124814286Y-116648390D02*
X124861905Y-116457914D01*
X124861905Y-116457914D02*
X124909524Y-116362676D01*
X124909524Y-116362676D02*
X125004762Y-116267438D01*
X125004762Y-116267438D02*
X125147619Y-116219819D01*
X125147619Y-116219819D02*
X125242857Y-116219819D01*
X125242857Y-116219819D02*
X125385714Y-116267438D01*
X125385714Y-116267438D02*
X125433333Y-116315057D01*
X125814286Y-116315057D02*
X125861905Y-116267438D01*
X125861905Y-116267438D02*
X125957143Y-116219819D01*
X125957143Y-116219819D02*
X126195238Y-116219819D01*
X126195238Y-116219819D02*
X126290476Y-116267438D01*
X126290476Y-116267438D02*
X126338095Y-116315057D01*
X126338095Y-116315057D02*
X126385714Y-116410295D01*
X126385714Y-116410295D02*
X126385714Y-116505533D01*
X126385714Y-116505533D02*
X126338095Y-116648390D01*
X126338095Y-116648390D02*
X125766667Y-117219819D01*
X125766667Y-117219819D02*
X126385714Y-117219819D01*
X141988095Y-113069819D02*
X141988095Y-113879342D01*
X141988095Y-113879342D02*
X142035714Y-113974580D01*
X142035714Y-113974580D02*
X142083333Y-114022200D01*
X142083333Y-114022200D02*
X142178571Y-114069819D01*
X142178571Y-114069819D02*
X142369047Y-114069819D01*
X142369047Y-114069819D02*
X142464285Y-114022200D01*
X142464285Y-114022200D02*
X142511904Y-113974580D01*
X142511904Y-113974580D02*
X142559523Y-113879342D01*
X142559523Y-113879342D02*
X142559523Y-113069819D01*
X143559523Y-114069819D02*
X142988095Y-114069819D01*
X143273809Y-114069819D02*
X143273809Y-113069819D01*
X143273809Y-113069819D02*
X143178571Y-113212676D01*
X143178571Y-113212676D02*
X143083333Y-113307914D01*
X143083333Y-113307914D02*
X142988095Y-113355533D01*
X133433333Y-118624580D02*
X133385714Y-118672200D01*
X133385714Y-118672200D02*
X133242857Y-118719819D01*
X133242857Y-118719819D02*
X133147619Y-118719819D01*
X133147619Y-118719819D02*
X133004762Y-118672200D01*
X133004762Y-118672200D02*
X132909524Y-118576961D01*
X132909524Y-118576961D02*
X132861905Y-118481723D01*
X132861905Y-118481723D02*
X132814286Y-118291247D01*
X132814286Y-118291247D02*
X132814286Y-118148390D01*
X132814286Y-118148390D02*
X132861905Y-117957914D01*
X132861905Y-117957914D02*
X132909524Y-117862676D01*
X132909524Y-117862676D02*
X133004762Y-117767438D01*
X133004762Y-117767438D02*
X133147619Y-117719819D01*
X133147619Y-117719819D02*
X133242857Y-117719819D01*
X133242857Y-117719819D02*
X133385714Y-117767438D01*
X133385714Y-117767438D02*
X133433333Y-117815057D01*
X134385714Y-118719819D02*
X133814286Y-118719819D01*
X134100000Y-118719819D02*
X134100000Y-117719819D01*
X134100000Y-117719819D02*
X134004762Y-117862676D01*
X134004762Y-117862676D02*
X133909524Y-117957914D01*
X133909524Y-117957914D02*
X133814286Y-118005533D01*
X148604819Y-112381666D02*
X148128628Y-112714999D01*
X148604819Y-112953094D02*
X147604819Y-112953094D01*
X147604819Y-112953094D02*
X147604819Y-112572142D01*
X147604819Y-112572142D02*
X147652438Y-112476904D01*
X147652438Y-112476904D02*
X147700057Y-112429285D01*
X147700057Y-112429285D02*
X147795295Y-112381666D01*
X147795295Y-112381666D02*
X147938152Y-112381666D01*
X147938152Y-112381666D02*
X148033390Y-112429285D01*
X148033390Y-112429285D02*
X148081009Y-112476904D01*
X148081009Y-112476904D02*
X148128628Y-112572142D01*
X148128628Y-112572142D02*
X148128628Y-112953094D01*
X148604819Y-111429285D02*
X148604819Y-112000713D01*
X148604819Y-111714999D02*
X147604819Y-111714999D01*
X147604819Y-111714999D02*
X147747676Y-111810237D01*
X147747676Y-111810237D02*
X147842914Y-111905475D01*
X147842914Y-111905475D02*
X147890533Y-112000713D01*
X77454819Y-71333333D02*
X78169104Y-71333333D01*
X78169104Y-71333333D02*
X78311961Y-71380952D01*
X78311961Y-71380952D02*
X78407200Y-71476190D01*
X78407200Y-71476190D02*
X78454819Y-71619047D01*
X78454819Y-71619047D02*
X78454819Y-71714285D01*
X77550057Y-70904761D02*
X77502438Y-70857142D01*
X77502438Y-70857142D02*
X77454819Y-70761904D01*
X77454819Y-70761904D02*
X77454819Y-70523809D01*
X77454819Y-70523809D02*
X77502438Y-70428571D01*
X77502438Y-70428571D02*
X77550057Y-70380952D01*
X77550057Y-70380952D02*
X77645295Y-70333333D01*
X77645295Y-70333333D02*
X77740533Y-70333333D01*
X77740533Y-70333333D02*
X77883390Y-70380952D01*
X77883390Y-70380952D02*
X78454819Y-70952380D01*
X78454819Y-70952380D02*
X78454819Y-70333333D01*
X151004819Y-112381666D02*
X150528628Y-112714999D01*
X151004819Y-112953094D02*
X150004819Y-112953094D01*
X150004819Y-112953094D02*
X150004819Y-112572142D01*
X150004819Y-112572142D02*
X150052438Y-112476904D01*
X150052438Y-112476904D02*
X150100057Y-112429285D01*
X150100057Y-112429285D02*
X150195295Y-112381666D01*
X150195295Y-112381666D02*
X150338152Y-112381666D01*
X150338152Y-112381666D02*
X150433390Y-112429285D01*
X150433390Y-112429285D02*
X150481009Y-112476904D01*
X150481009Y-112476904D02*
X150528628Y-112572142D01*
X150528628Y-112572142D02*
X150528628Y-112953094D01*
X150100057Y-112000713D02*
X150052438Y-111953094D01*
X150052438Y-111953094D02*
X150004819Y-111857856D01*
X150004819Y-111857856D02*
X150004819Y-111619761D01*
X150004819Y-111619761D02*
X150052438Y-111524523D01*
X150052438Y-111524523D02*
X150100057Y-111476904D01*
X150100057Y-111476904D02*
X150195295Y-111429285D01*
X150195295Y-111429285D02*
X150290533Y-111429285D01*
X150290533Y-111429285D02*
X150433390Y-111476904D01*
X150433390Y-111476904D02*
X151004819Y-112048332D01*
X151004819Y-112048332D02*
X151004819Y-111429285D01*
X127477080Y-63166666D02*
X127524700Y-63214285D01*
X127524700Y-63214285D02*
X127572319Y-63357142D01*
X127572319Y-63357142D02*
X127572319Y-63452380D01*
X127572319Y-63452380D02*
X127524700Y-63595237D01*
X127524700Y-63595237D02*
X127429461Y-63690475D01*
X127429461Y-63690475D02*
X127334223Y-63738094D01*
X127334223Y-63738094D02*
X127143747Y-63785713D01*
X127143747Y-63785713D02*
X127000890Y-63785713D01*
X127000890Y-63785713D02*
X126810414Y-63738094D01*
X126810414Y-63738094D02*
X126715176Y-63690475D01*
X126715176Y-63690475D02*
X126619938Y-63595237D01*
X126619938Y-63595237D02*
X126572319Y-63452380D01*
X126572319Y-63452380D02*
X126572319Y-63357142D01*
X126572319Y-63357142D02*
X126619938Y-63214285D01*
X126619938Y-63214285D02*
X126667557Y-63166666D01*
X126572319Y-62833332D02*
X126572319Y-62214285D01*
X126572319Y-62214285D02*
X126953271Y-62547618D01*
X126953271Y-62547618D02*
X126953271Y-62404761D01*
X126953271Y-62404761D02*
X127000890Y-62309523D01*
X127000890Y-62309523D02*
X127048509Y-62261904D01*
X127048509Y-62261904D02*
X127143747Y-62214285D01*
X127143747Y-62214285D02*
X127381842Y-62214285D01*
X127381842Y-62214285D02*
X127477080Y-62261904D01*
X127477080Y-62261904D02*
X127524700Y-62309523D01*
X127524700Y-62309523D02*
X127572319Y-62404761D01*
X127572319Y-62404761D02*
X127572319Y-62690475D01*
X127572319Y-62690475D02*
X127524700Y-62785713D01*
X127524700Y-62785713D02*
X127477080Y-62833332D01*
X158909580Y-89641666D02*
X158957200Y-89689285D01*
X158957200Y-89689285D02*
X159004819Y-89832142D01*
X159004819Y-89832142D02*
X159004819Y-89927380D01*
X159004819Y-89927380D02*
X158957200Y-90070237D01*
X158957200Y-90070237D02*
X158861961Y-90165475D01*
X158861961Y-90165475D02*
X158766723Y-90213094D01*
X158766723Y-90213094D02*
X158576247Y-90260713D01*
X158576247Y-90260713D02*
X158433390Y-90260713D01*
X158433390Y-90260713D02*
X158242914Y-90213094D01*
X158242914Y-90213094D02*
X158147676Y-90165475D01*
X158147676Y-90165475D02*
X158052438Y-90070237D01*
X158052438Y-90070237D02*
X158004819Y-89927380D01*
X158004819Y-89927380D02*
X158004819Y-89832142D01*
X158004819Y-89832142D02*
X158052438Y-89689285D01*
X158052438Y-89689285D02*
X158100057Y-89641666D01*
X158004819Y-88736904D02*
X158004819Y-89213094D01*
X158004819Y-89213094D02*
X158481009Y-89260713D01*
X158481009Y-89260713D02*
X158433390Y-89213094D01*
X158433390Y-89213094D02*
X158385771Y-89117856D01*
X158385771Y-89117856D02*
X158385771Y-88879761D01*
X158385771Y-88879761D02*
X158433390Y-88784523D01*
X158433390Y-88784523D02*
X158481009Y-88736904D01*
X158481009Y-88736904D02*
X158576247Y-88689285D01*
X158576247Y-88689285D02*
X158814342Y-88689285D01*
X158814342Y-88689285D02*
X158909580Y-88736904D01*
X158909580Y-88736904D02*
X158957200Y-88784523D01*
X158957200Y-88784523D02*
X159004819Y-88879761D01*
X159004819Y-88879761D02*
X159004819Y-89117856D01*
X159004819Y-89117856D02*
X158957200Y-89213094D01*
X158957200Y-89213094D02*
X158909580Y-89260713D01*
D11*
G04 #@! TO.C,A2*
X127800000Y-39000000D02*
X127800000Y-37000000D01*
X128120000Y-34190000D02*
X128120000Y-79910000D01*
X148550000Y-31540000D02*
X130770000Y-31540000D01*
X148550000Y-82560000D02*
X130770000Y-82560000D01*
X151200000Y-34190000D02*
X151200000Y-79910000D01*
X128120000Y-34190000D02*
G75*
G02*
X130770000Y-31540000I2650000J0D01*
G01*
X130770000Y-82560000D02*
G75*
G02*
X128120000Y-79910000I0J2650000D01*
G01*
X148550000Y-31540000D02*
G75*
G02*
X151200000Y-34190000I0J-2650000D01*
G01*
X151200000Y-79910000D02*
G75*
G02*
X148550000Y-82560000I-2650000J0D01*
G01*
G04 #@! TO.C,J1*
X147340000Y-105610000D02*
X147340000Y-91790000D01*
X150040000Y-91790000D02*
X147340000Y-91790000D01*
X150040000Y-105610000D02*
X147340000Y-105610000D01*
X158340000Y-91790000D02*
X152560000Y-91790000D01*
X158340000Y-105610000D02*
X152560000Y-105610000D01*
X161260000Y-91790000D02*
X160860000Y-91790000D01*
X161260000Y-91790000D02*
X161260000Y-105610000D01*
X161260000Y-93200000D02*
X162260000Y-93200000D01*
X161260000Y-104200000D02*
X162260000Y-104200000D01*
X161260000Y-105610000D02*
X160860000Y-105610000D01*
X161460000Y-97800000D02*
X161460000Y-99600000D01*
X161460000Y-99600000D02*
X161560000Y-100900000D01*
X161560000Y-96500000D02*
X161460000Y-97800000D01*
X161560000Y-100900000D02*
X161760000Y-102400000D01*
X161660000Y-95700000D02*
X161560000Y-96500000D01*
X161760000Y-102400000D02*
X162060000Y-103700000D01*
X161960000Y-94000000D02*
X161660000Y-95700000D01*
X162060000Y-103700000D02*
X162160000Y-104200000D01*
X162160000Y-93200000D02*
X161960000Y-94000000D01*
X162760000Y-93700000D02*
X162760000Y-103700000D01*
X162260000Y-93200000D02*
G75*
G02*
X162760000Y-93700000I-1J-500001D01*
G01*
X162760000Y-103700000D02*
G75*
G02*
X162260000Y-104200000I-500000J0D01*
G01*
G04 #@! TO.C,U2*
X122240000Y-117855000D02*
X122965000Y-117855000D01*
X122240000Y-118080000D02*
X122240000Y-117855000D01*
X122240000Y-121575000D02*
X122240000Y-121350000D01*
X122965000Y-121575000D02*
X122240000Y-121575000D01*
X124235000Y-117855000D02*
X124960000Y-117855000D01*
X124960000Y-117855000D02*
X124960000Y-118080000D01*
X124960000Y-121350000D02*
X124960000Y-121575000D01*
X124960000Y-121575000D02*
X124235000Y-121575000D01*
X123350000Y-117345000D02*
X123110000Y-117015000D01*
X123590000Y-117015000D01*
X123350000Y-117345000D01*
G36*
X123350000Y-117345000D02*
G01*
X123110000Y-117015000D01*
X123590000Y-117015000D01*
X123350000Y-117345000D01*
G37*
G04 #@! TO.C,U4*
X92090000Y-115590000D02*
X93350000Y-115590000D01*
X92090000Y-119350000D02*
X92090000Y-115590000D01*
X98910000Y-115590000D02*
X97650000Y-115590000D01*
X98910000Y-119350000D02*
X98910000Y-115590000D01*
X92190000Y-120630000D02*
X91860000Y-120870000D01*
X91860000Y-120390000D01*
X92190000Y-120630000D01*
G36*
X92190000Y-120630000D02*
G01*
X91860000Y-120870000D01*
X91860000Y-120390000D01*
X92190000Y-120630000D01*
G37*
G04 #@! TO.C,J3*
X106790000Y-106700000D02*
X107390000Y-107000000D01*
X106790000Y-107300000D02*
X106790000Y-106700000D01*
X107390000Y-107000000D02*
X106790000Y-107300000D01*
X108400000Y-32230000D02*
X108400000Y-34770000D01*
X108400000Y-39960000D02*
X108400000Y-36880000D01*
X108400000Y-45040000D02*
X108400000Y-41960000D01*
X108400000Y-50120000D02*
X108400000Y-47040000D01*
X108400000Y-55200000D02*
X108400000Y-52120000D01*
X108400000Y-60280000D02*
X108400000Y-57200000D01*
X108400000Y-65360000D02*
X108400000Y-62280000D01*
X108400000Y-70440000D02*
X108400000Y-67360000D01*
X108400000Y-75520000D02*
X108400000Y-72440000D01*
X108400000Y-80600000D02*
X108400000Y-77520000D01*
X108400000Y-85680000D02*
X108400000Y-82600000D01*
X108400000Y-90760000D02*
X108400000Y-87680000D01*
X108400000Y-95840000D02*
X108400000Y-92760000D01*
X108400000Y-100920000D02*
X108400000Y-97840000D01*
X108400000Y-106000000D02*
X108400000Y-102920000D01*
X108400000Y-110650000D02*
X108400000Y-108110000D01*
X109400000Y-33140000D02*
X114700000Y-33140000D01*
X109400000Y-109740000D02*
X109400000Y-33140000D01*
X114700000Y-33140000D02*
X114700000Y-33880000D01*
X114700000Y-38960000D02*
X114700000Y-37880000D01*
X114700000Y-44040000D02*
X114700000Y-42960000D01*
X114700000Y-49120000D02*
X114700000Y-48040000D01*
X114700000Y-54200000D02*
X114700000Y-53120000D01*
X114700000Y-59280000D02*
X114700000Y-58200000D01*
X114700000Y-64360000D02*
X114700000Y-63280000D01*
X114700000Y-69440000D02*
X114700000Y-68360000D01*
X114700000Y-74520000D02*
X114700000Y-73440000D01*
X114700000Y-79600000D02*
X114700000Y-78520000D01*
X114700000Y-84680000D02*
X114700000Y-83600000D01*
X114700000Y-89760000D02*
X114700000Y-88680000D01*
X114700000Y-94840000D02*
X114700000Y-93760000D01*
X114700000Y-99920000D02*
X114700000Y-98840000D01*
X114700000Y-105000000D02*
X114700000Y-103920000D01*
X114700000Y-109000000D02*
X114700000Y-109740000D01*
X114700000Y-109740000D02*
X109400000Y-109740000D01*
X107590000Y-36880000D02*
X109400000Y-36880000D01*
X109400000Y-34880000D01*
X107590000Y-34880000D01*
X107590000Y-36880000D01*
X107590000Y-41960000D02*
X109400000Y-41960000D01*
X109400000Y-39960000D01*
X107590000Y-39960000D01*
X107590000Y-41960000D01*
X107590000Y-47040000D02*
X109400000Y-47040000D01*
X109400000Y-45040000D01*
X107590000Y-45040000D01*
X107590000Y-47040000D01*
X107590000Y-52120000D02*
X109400000Y-52120000D01*
X109400000Y-50120000D01*
X107590000Y-50120000D01*
X107590000Y-52120000D01*
X107590000Y-57200000D02*
X109400000Y-57200000D01*
X109400000Y-55200000D01*
X107590000Y-55200000D01*
X107590000Y-57200000D01*
X107590000Y-62280000D02*
X109400000Y-62280000D01*
X109400000Y-60280000D01*
X107590000Y-60280000D01*
X107590000Y-62280000D01*
X107590000Y-67360000D02*
X109400000Y-67360000D01*
X109400000Y-65360000D01*
X107590000Y-65360000D01*
X107590000Y-67360000D01*
X107590000Y-72440000D02*
X109400000Y-72440000D01*
X109400000Y-70440000D01*
X107590000Y-70440000D01*
X107590000Y-72440000D01*
X107590000Y-77520000D02*
X109400000Y-77520000D01*
X109400000Y-75520000D01*
X107590000Y-75520000D01*
X107590000Y-77520000D01*
X107590000Y-82600000D02*
X109400000Y-82600000D01*
X109400000Y-80600000D01*
X107590000Y-80600000D01*
X107590000Y-82600000D01*
X107590000Y-87680000D02*
X109400000Y-87680000D01*
X109400000Y-85680000D01*
X107590000Y-85680000D01*
X107590000Y-87680000D01*
X107590000Y-92760000D02*
X109400000Y-92760000D01*
X109400000Y-90760000D01*
X107590000Y-90760000D01*
X107590000Y-92760000D01*
X107590000Y-97840000D02*
X109400000Y-97840000D01*
X109400000Y-95840000D01*
X107590000Y-95840000D01*
X107590000Y-97840000D01*
X107590000Y-102920000D02*
X109400000Y-102920000D01*
X109400000Y-100920000D01*
X107590000Y-100920000D01*
X107590000Y-102920000D01*
X107590000Y-108000000D02*
X109400000Y-108000000D01*
X109400000Y-106000000D01*
X107590000Y-106000000D01*
X107590000Y-108000000D01*
X107590000Y-110650000D02*
X116410000Y-110650000D01*
X116410000Y-32230000D01*
X107590000Y-32230000D01*
X107590000Y-110650000D01*
X114715821Y-33893158D02*
G75*
G02*
X114700000Y-37880000I-1665821J-1986842D01*
G01*
X114715821Y-38973158D02*
G75*
G02*
X114700000Y-42960000I-1665821J-1986842D01*
G01*
X114715821Y-44053158D02*
G75*
G02*
X114700000Y-48040000I-1665821J-1986842D01*
G01*
X114715821Y-49133158D02*
G75*
G02*
X114700000Y-53120000I-1665821J-1986842D01*
G01*
X114715821Y-54213158D02*
G75*
G02*
X114700000Y-58200000I-1665821J-1986842D01*
G01*
X114715821Y-59293158D02*
G75*
G02*
X114700000Y-63280000I-1665821J-1986842D01*
G01*
X114715821Y-64373158D02*
G75*
G02*
X114700000Y-68360000I-1665821J-1986842D01*
G01*
X114715821Y-69453158D02*
G75*
G02*
X114700000Y-73440000I-1665821J-1986842D01*
G01*
X114715821Y-74533158D02*
G75*
G02*
X114700000Y-78520000I-1665821J-1986842D01*
G01*
X114715821Y-79613158D02*
G75*
G02*
X114700000Y-83600000I-1665821J-1986842D01*
G01*
X114715821Y-84693158D02*
G75*
G02*
X114700000Y-88680000I-1665821J-1986842D01*
G01*
X114715821Y-89773158D02*
G75*
G02*
X114700000Y-93760000I-1665821J-1986842D01*
G01*
X114715821Y-94853158D02*
G75*
G02*
X114700000Y-98840000I-1665821J-1986842D01*
G01*
X114715821Y-99933158D02*
G75*
G02*
X114700000Y-103920000I-1665821J-1986842D01*
G01*
X114715821Y-105013158D02*
G75*
G02*
X114700000Y-109000000I-1665821J-1986842D01*
G01*
G04 #@! TO.C,U1*
X138890000Y-114455000D02*
X146610000Y-114455000D01*
X138890000Y-114710000D02*
X138890000Y-114455000D01*
X138890000Y-124975000D02*
X138890000Y-124720000D01*
X146610000Y-114455000D02*
X146610000Y-114710000D01*
X146610000Y-124720000D02*
X146610000Y-124975000D01*
X146610000Y-124975000D02*
X138890000Y-124975000D01*
X138100000Y-114705000D02*
X137760000Y-114235000D01*
X138440000Y-114235000D01*
X138100000Y-114705000D01*
G36*
X138100000Y-114705000D02*
G01*
X137760000Y-114235000D01*
X138440000Y-114235000D01*
X138100000Y-114705000D01*
G37*
G04 #@! TO.C,J2*
X78290000Y-105700000D02*
X78890000Y-106000000D01*
X78290000Y-106300000D02*
X78290000Y-105700000D01*
X78890000Y-106000000D02*
X78290000Y-106300000D01*
X79900000Y-32390000D02*
X79900000Y-34890000D01*
X79900000Y-40000000D02*
X79900000Y-37000000D01*
X79900000Y-45000000D02*
X79900000Y-42000000D01*
X79900000Y-50000000D02*
X79900000Y-47000000D01*
X79900000Y-55000000D02*
X79900000Y-52000000D01*
X79900000Y-60000000D02*
X79900000Y-57000000D01*
X79900000Y-65000000D02*
X79900000Y-62000000D01*
X79900000Y-70000000D02*
X79900000Y-67000000D01*
X79900000Y-75000000D02*
X79900000Y-72000000D01*
X79900000Y-80000000D02*
X79900000Y-77000000D01*
X79900000Y-85000000D02*
X79900000Y-82000000D01*
X79900000Y-90000000D02*
X79900000Y-87000000D01*
X79900000Y-95000000D02*
X79900000Y-92000000D01*
X79900000Y-100000000D02*
X79900000Y-97000000D01*
X79900000Y-105000000D02*
X79900000Y-102000000D01*
X79900000Y-109610000D02*
X79900000Y-107110000D01*
X80900000Y-33300000D02*
X86200000Y-33300000D01*
X80900000Y-108700000D02*
X80900000Y-33300000D01*
X86200000Y-33300000D02*
X86200000Y-34000000D01*
X86200000Y-39000000D02*
X86200000Y-38000000D01*
X86200000Y-44000000D02*
X86200000Y-43000000D01*
X86200000Y-49000000D02*
X86200000Y-48000000D01*
X86200000Y-54000000D02*
X86200000Y-53000000D01*
X86200000Y-59000000D02*
X86200000Y-58000000D01*
X86200000Y-64000000D02*
X86200000Y-63000000D01*
X86200000Y-69000000D02*
X86200000Y-68000000D01*
X86200000Y-74000000D02*
X86200000Y-73000000D01*
X86200000Y-79000000D02*
X86200000Y-78000000D01*
X86200000Y-84000000D02*
X86200000Y-83000000D01*
X86200000Y-89000000D02*
X86200000Y-88000000D01*
X86200000Y-94000000D02*
X86200000Y-93000000D01*
X86200000Y-99000000D02*
X86200000Y-98000000D01*
X86200000Y-104000000D02*
X86200000Y-103000000D01*
X86200000Y-108000000D02*
X86200000Y-108700000D01*
X86200000Y-108700000D02*
X80900000Y-108700000D01*
X79090000Y-37000000D02*
X80900000Y-37000000D01*
X80900000Y-35000000D01*
X79090000Y-35000000D01*
X79090000Y-37000000D01*
X79090000Y-42000000D02*
X80900000Y-42000000D01*
X80900000Y-40000000D01*
X79090000Y-40000000D01*
X79090000Y-42000000D01*
X79090000Y-47000000D02*
X80900000Y-47000000D01*
X80900000Y-45000000D01*
X79090000Y-45000000D01*
X79090000Y-47000000D01*
X79090000Y-52000000D02*
X80900000Y-52000000D01*
X80900000Y-50000000D01*
X79090000Y-50000000D01*
X79090000Y-52000000D01*
X79090000Y-57000000D02*
X80900000Y-57000000D01*
X80900000Y-55000000D01*
X79090000Y-55000000D01*
X79090000Y-57000000D01*
X79090000Y-62000000D02*
X80900000Y-62000000D01*
X80900000Y-60000000D01*
X79090000Y-60000000D01*
X79090000Y-62000000D01*
X79090000Y-67000000D02*
X80900000Y-67000000D01*
X80900000Y-65000000D01*
X79090000Y-65000000D01*
X79090000Y-67000000D01*
X79090000Y-72000000D02*
X80900000Y-72000000D01*
X80900000Y-70000000D01*
X79090000Y-70000000D01*
X79090000Y-72000000D01*
X79090000Y-77000000D02*
X80900000Y-77000000D01*
X80900000Y-75000000D01*
X79090000Y-75000000D01*
X79090000Y-77000000D01*
X79090000Y-82000000D02*
X80900000Y-82000000D01*
X80900000Y-80000000D01*
X79090000Y-80000000D01*
X79090000Y-82000000D01*
X79090000Y-87000000D02*
X80900000Y-87000000D01*
X80900000Y-85000000D01*
X79090000Y-85000000D01*
X79090000Y-87000000D01*
X79090000Y-92000000D02*
X80900000Y-92000000D01*
X80900000Y-90000000D01*
X79090000Y-90000000D01*
X79090000Y-92000000D01*
X79090000Y-97000000D02*
X80900000Y-97000000D01*
X80900000Y-95000000D01*
X79090000Y-95000000D01*
X79090000Y-97000000D01*
X79090000Y-102000000D02*
X80900000Y-102000000D01*
X80900000Y-100000000D01*
X79090000Y-100000000D01*
X79090000Y-102000000D01*
X79090000Y-107000000D02*
X80900000Y-107000000D01*
X80900000Y-105000000D01*
X79090000Y-105000000D01*
X79090000Y-107000000D01*
X79090000Y-109610000D02*
X87910000Y-109610000D01*
X87910000Y-32390000D01*
X79090000Y-32390000D01*
X79090000Y-109610000D01*
X86215821Y-34013158D02*
G75*
G02*
X86200000Y-38000000I-1665821J-1986842D01*
G01*
X86215821Y-39013158D02*
G75*
G02*
X86200000Y-43000000I-1665821J-1986842D01*
G01*
X86215821Y-44013158D02*
G75*
G02*
X86200000Y-48000000I-1665821J-1986842D01*
G01*
X86215821Y-49013158D02*
G75*
G02*
X86200000Y-53000000I-1665821J-1986842D01*
G01*
X86215821Y-54013158D02*
G75*
G02*
X86200000Y-58000000I-1665821J-1986842D01*
G01*
X86215821Y-59013158D02*
G75*
G02*
X86200000Y-63000000I-1665821J-1986842D01*
G01*
X86215821Y-64013158D02*
G75*
G02*
X86200000Y-68000000I-1665821J-1986842D01*
G01*
X86215821Y-69013158D02*
G75*
G02*
X86200000Y-73000000I-1665821J-1986842D01*
G01*
X86215821Y-74013158D02*
G75*
G02*
X86200000Y-78000000I-1665821J-1986842D01*
G01*
X86215821Y-79013158D02*
G75*
G02*
X86200000Y-83000000I-1665821J-1986842D01*
G01*
X86215821Y-84013158D02*
G75*
G02*
X86200000Y-88000000I-1665821J-1986842D01*
G01*
X86215821Y-89013158D02*
G75*
G02*
X86200000Y-93000000I-1665821J-1986842D01*
G01*
X86215821Y-94013158D02*
G75*
G02*
X86200000Y-98000000I-1665821J-1986842D01*
G01*
X86215821Y-99013158D02*
G75*
G02*
X86200000Y-103000000I-1665821J-1986842D01*
G01*
X86215821Y-104013158D02*
G75*
G02*
X86200000Y-108000000I-1665821J-1986842D01*
G01*
G04 #@! TD*
%LPC*%
D12*
G04 #@! TO.C,R3*
X134007500Y-119500000D03*
X133192500Y-119500000D03*
G04 #@! TD*
D13*
G04 #@! TO.C,C4*
X155500000Y-89000000D03*
X155500000Y-89815000D03*
G04 #@! TD*
D14*
G04 #@! TO.C,A2*
X129800000Y-38000000D03*
D15*
X129800000Y-40540000D03*
X129800000Y-43080000D03*
X129800000Y-45620000D03*
X129800000Y-48160000D03*
X129800000Y-50700000D03*
X129800000Y-53240000D03*
X129800000Y-55780000D03*
X129800000Y-58320000D03*
X129800000Y-60860000D03*
X129800000Y-63400000D03*
X129800000Y-65940000D03*
X129800000Y-68480000D03*
X129800000Y-71020000D03*
X129800000Y-73560000D03*
X129800000Y-76100000D03*
X149520000Y-76100000D03*
X149520000Y-73560000D03*
X149520000Y-71020000D03*
X149520000Y-68480000D03*
X149520000Y-65940000D03*
X149520000Y-63400000D03*
X149520000Y-60860000D03*
X149520000Y-58320000D03*
X149520000Y-55780000D03*
X149520000Y-53240000D03*
X149520000Y-50700000D03*
X149520000Y-48160000D03*
G04 #@! TD*
D16*
G04 #@! TO.C,J1*
X157000000Y-95500000D03*
X157000000Y-96600000D03*
X157000000Y-97700000D03*
X157000000Y-98800000D03*
X157000000Y-99900000D03*
X157000000Y-101000000D03*
X157000000Y-102100000D03*
X157000000Y-103200000D03*
D17*
X159600000Y-91825000D03*
X151300000Y-91825000D03*
X159600000Y-105575000D03*
X151300000Y-105575000D03*
G04 #@! TD*
D13*
G04 #@! TO.C,R6*
X151000000Y-88592500D03*
X151000000Y-89407500D03*
G04 #@! TD*
D18*
G04 #@! TO.C,C6*
X102500000Y-120907500D03*
X102500000Y-120092500D03*
G04 #@! TD*
G04 #@! TO.C,C8*
X97500000Y-124757500D03*
X97500000Y-123942500D03*
G04 #@! TD*
D19*
G04 #@! TO.C,U2*
X123350000Y-118027500D03*
D20*
X122412500Y-118465000D03*
X122412500Y-118965000D03*
X122412500Y-119465000D03*
X122412500Y-119965000D03*
X122412500Y-120465000D03*
X122412500Y-120965000D03*
D19*
X123350000Y-121402500D03*
X123850000Y-121402500D03*
D20*
X124787500Y-120965000D03*
X124787500Y-120465000D03*
X124787500Y-119965000D03*
X124787500Y-119465000D03*
X124787500Y-118965000D03*
X124787500Y-118465000D03*
D19*
X123850000Y-118027500D03*
D21*
X123600000Y-119715000D03*
G04 #@! TD*
D22*
G04 #@! TO.C,U4*
X93200000Y-120650000D03*
X95500000Y-120650000D03*
D23*
X95500000Y-114350000D03*
D22*
X97800000Y-120650000D03*
G04 #@! TD*
D24*
G04 #@! TO.C,J3*
X112500000Y-107000000D03*
D25*
X112500000Y-101920000D03*
X112500000Y-96840000D03*
X112500000Y-91760000D03*
X112500000Y-86680000D03*
X112500000Y-81600000D03*
X112500000Y-76520000D03*
X112500000Y-71440000D03*
X112500000Y-66360000D03*
X112500000Y-61280000D03*
X112500000Y-56200000D03*
X112500000Y-51120000D03*
X112500000Y-46040000D03*
X112500000Y-40960000D03*
X112500000Y-35880000D03*
G04 #@! TD*
D12*
G04 #@! TO.C,R5*
X123975000Y-61500000D03*
X123160000Y-61500000D03*
G04 #@! TD*
D18*
G04 #@! TO.C,C7*
X95000000Y-124757500D03*
X95000000Y-123942500D03*
G04 #@! TD*
D13*
G04 #@! TO.C,R4*
X119500000Y-117185000D03*
X119500000Y-118000000D03*
G04 #@! TD*
D12*
G04 #@! TO.C,C2*
X126007500Y-115715000D03*
X125192500Y-115715000D03*
G04 #@! TD*
D26*
G04 #@! TO.C,U1*
X138100000Y-115270000D03*
X138100000Y-116540000D03*
X138100000Y-117810000D03*
X138100000Y-119080000D03*
X138100000Y-120350000D03*
X138100000Y-121620000D03*
X138100000Y-122890000D03*
X138100000Y-124160000D03*
X147400000Y-124160000D03*
X147400000Y-122890000D03*
X147400000Y-121620000D03*
X147400000Y-120350000D03*
X147400000Y-119080000D03*
X147400000Y-117810000D03*
X147400000Y-116540000D03*
X147400000Y-115270000D03*
G04 #@! TD*
D12*
G04 #@! TO.C,C1*
X134007500Y-117215000D03*
X133192500Y-117215000D03*
G04 #@! TD*
D13*
G04 #@! TO.C,R1*
X147100000Y-111807500D03*
X147100000Y-112622500D03*
G04 #@! TD*
D27*
G04 #@! TO.C,J2*
X84000000Y-106000000D03*
D28*
X84000000Y-101000000D03*
X84000000Y-96000000D03*
X84000000Y-91000000D03*
X84000000Y-86000000D03*
X84000000Y-81000000D03*
X84000000Y-76000000D03*
X84000000Y-71000000D03*
X84000000Y-66000000D03*
X84000000Y-61000000D03*
X84000000Y-56000000D03*
X84000000Y-51000000D03*
X84000000Y-46000000D03*
X84000000Y-41000000D03*
X84000000Y-36000000D03*
G04 #@! TD*
D13*
G04 #@! TO.C,R2*
X149500000Y-111807500D03*
X149500000Y-112622500D03*
G04 #@! TD*
G04 #@! TO.C,C3*
X126067500Y-62592500D03*
X126067500Y-63407500D03*
G04 #@! TD*
G04 #@! TO.C,C5*
X157500000Y-89067500D03*
X157500000Y-89882500D03*
G04 #@! TD*
%LPD*%
M02*
