%TF.GenerationSoftware,KiCad,Pcbnew,9.0.7*%
%TF.CreationDate,2026-04-14T19:05:39-06:00*%
%TF.ProjectId,ArduLogger,41726475-4c6f-4676-9765-722e6b696361,rev?*%
%TF.SameCoordinates,Original*%
%TF.FileFunction,Drillmap*%
%TF.FilePolarity,Positive*%
%FSLAX45Y45*%
G04 Gerber Fmt 4.5, Leading zero omitted, Abs format (unit mm)*
G04 Created by KiCad (PCBNEW 9.0.7) date 2026-04-14 19:05:39*
%MOMM*%
%LPD*%
G01*
G04 APERTURE LIST*
%ADD10C,0.050000*%
%ADD11C,0.200000*%
%ADD12C,0.100000*%
%ADD13C,0.140000*%
G04 APERTURE END LIST*
D10*
X7900000Y-12400000D02*
G75*
G02*
X7400000Y-12400000I-250000J0D01*
G01*
X7400000Y-12400000D02*
G75*
G02*
X7900000Y-12400000I250000J0D01*
G01*
X7150000Y-3000000D02*
X16200000Y-3000000D01*
X16200000Y-12900000D01*
X7150000Y-12900000D01*
X7150000Y-3000000D01*
X16000000Y-3500000D02*
G75*
G02*
X15500000Y-3500000I-250000J0D01*
G01*
X15500000Y-3500000D02*
G75*
G02*
X16000000Y-3500000I250000J0D01*
G01*
X16050000Y-12400000D02*
G75*
G02*
X15550000Y-12400000I-250000J0D01*
G01*
X15550000Y-12400000D02*
G75*
G02*
X16050000Y-12400000I250000J0D01*
G01*
D11*
D12*
X8149070Y-9831410D02*
X8179070Y-9861410D01*
X8179070Y-9831410D02*
X8149070Y-9861410D01*
X8285000Y-4385000D02*
X8315000Y-4415000D01*
X8315000Y-4385000D02*
X8285000Y-4415000D01*
X8435000Y-8385000D02*
X8465000Y-8415000D01*
X8465000Y-8385000D02*
X8435000Y-8415000D01*
X8734250Y-5746630D02*
X8764250Y-5776630D01*
X8764250Y-5746630D02*
X8734250Y-5776630D01*
X8742860Y-7638960D02*
X8772860Y-7668960D01*
X8772860Y-7638960D02*
X8742860Y-7668960D01*
X9026680Y-5052100D02*
X9056680Y-5082100D01*
X9056680Y-5052100D02*
X9026680Y-5082100D01*
X9035370Y-7135880D02*
X9065370Y-7165880D01*
X9065370Y-7135880D02*
X9035370Y-7165880D01*
X9080480Y-6675340D02*
X9110480Y-6705340D01*
X9110480Y-6675340D02*
X9080480Y-6705340D01*
X9196120Y-7036120D02*
X9226120Y-7066120D01*
X9226120Y-7036120D02*
X9196120Y-7066120D01*
X9285000Y-12220000D02*
X9315000Y-12250000D01*
X9315000Y-12220000D02*
X9285000Y-12250000D01*
X9328100Y-6030590D02*
X9358100Y-6060590D01*
X9358100Y-6030590D02*
X9328100Y-6060590D01*
X9435000Y-12570000D02*
X9465000Y-12600000D01*
X9465000Y-12570000D02*
X9435000Y-12600000D01*
X9506730Y-11232090D02*
X9536730Y-11262090D01*
X9536730Y-11232090D02*
X9506730Y-11262090D01*
X10185000Y-12185000D02*
X10215000Y-12215000D01*
X10215000Y-12185000D02*
X10185000Y-12215000D01*
X10535000Y-11985000D02*
X10565000Y-12015000D01*
X10565000Y-11985000D02*
X10535000Y-12015000D01*
X10971750Y-6857210D02*
X11001750Y-6887210D01*
X11001750Y-6857210D02*
X10971750Y-6887210D01*
X11335000Y-4335000D02*
X11365000Y-4365000D01*
X11365000Y-4335000D02*
X11335000Y-4365000D01*
X11335000Y-8435000D02*
X11365000Y-8465000D01*
X11365000Y-8435000D02*
X11335000Y-8465000D01*
X11738710Y-11756580D02*
X11768710Y-11786580D01*
X11768710Y-11756580D02*
X11738710Y-11786580D01*
X11916940Y-7016390D02*
X11946940Y-7046390D01*
X11946940Y-7016390D02*
X11916940Y-7046390D01*
X11952740Y-11553930D02*
X11982740Y-11583930D01*
X11982740Y-11553930D02*
X11952740Y-11583930D01*
X11960280Y-8664330D02*
X11990280Y-8694330D01*
X11990280Y-8664330D02*
X11960280Y-8694330D01*
X12037430Y-7121200D02*
X12067430Y-7151200D01*
X12067430Y-7121200D02*
X12037430Y-7151200D01*
X12073230Y-6649590D02*
X12103230Y-6679590D01*
X12103230Y-6649590D02*
X12073230Y-6679590D01*
X12293681Y-12133732D02*
X12323681Y-12163732D01*
X12323681Y-12133732D02*
X12293681Y-12163732D01*
X12312780Y-7257200D02*
X12342780Y-7287200D01*
X12342780Y-7257200D02*
X12312780Y-7287200D01*
X12313940Y-9247870D02*
X12343940Y-9277870D01*
X12343940Y-9247870D02*
X12313940Y-9277870D01*
X12337640Y-11582030D02*
X12367640Y-11612030D01*
X12367640Y-11582030D02*
X12337640Y-11612030D01*
X12565510Y-12041450D02*
X12595510Y-12071450D01*
X12595510Y-12041450D02*
X12565510Y-12071450D01*
X12581750Y-11920460D02*
X12611750Y-11950460D01*
X12611750Y-11920460D02*
X12581750Y-11950460D01*
X12588680Y-11820010D02*
X12618680Y-11850010D01*
X12618680Y-11820010D02*
X12588680Y-11850010D01*
X12619190Y-11708880D02*
X12649190Y-11738880D01*
X12649190Y-11708880D02*
X12619190Y-11738880D01*
X12685000Y-11585000D02*
X12715000Y-11615000D01*
X12715000Y-11585000D02*
X12685000Y-11615000D01*
X12835440Y-11328130D02*
X12865440Y-11358130D01*
X12865440Y-11328130D02*
X12835440Y-11358130D01*
X13069850Y-11346640D02*
X13099850Y-11376640D01*
X13099850Y-11346640D02*
X13069850Y-11376640D01*
X13123100Y-9909350D02*
X13153100Y-9939350D01*
X13153100Y-9909350D02*
X13123100Y-9939350D01*
X13185000Y-4485000D02*
X13215000Y-4515000D01*
X13215000Y-4485000D02*
X13185000Y-4515000D01*
X13185000Y-11735000D02*
X13215000Y-11765000D01*
X13215000Y-11735000D02*
X13185000Y-11765000D01*
X13375360Y-8878160D02*
X13405360Y-8908160D01*
X13405360Y-8878160D02*
X13375360Y-8908160D01*
X13708440Y-9631530D02*
X13738440Y-9661530D01*
X13738440Y-9631530D02*
X13708440Y-9661530D01*
X13992020Y-10989640D02*
X14022020Y-11019640D01*
X14022020Y-10989640D02*
X13992020Y-11019640D01*
X14215310Y-7396910D02*
X14245310Y-7426910D01*
X14245310Y-7396910D02*
X14215310Y-7426910D01*
X14264920Y-10969960D02*
X14294920Y-10999960D01*
X14294920Y-10969960D02*
X14264920Y-10999960D01*
X14285000Y-12185000D02*
X14315000Y-12215000D01*
X14315000Y-12185000D02*
X14285000Y-12215000D01*
X14293460Y-8956100D02*
X14323460Y-8986100D01*
X14323460Y-8956100D02*
X14293460Y-8986100D01*
X14365290Y-8453890D02*
X14395290Y-8483890D01*
X14395290Y-8453890D02*
X14365290Y-8483890D01*
X14517320Y-10691510D02*
X14547320Y-10721510D01*
X14547320Y-10691510D02*
X14517320Y-10721510D01*
X14801590Y-11020560D02*
X14831590Y-11050560D01*
X14831590Y-11020560D02*
X14801590Y-11050560D01*
X14882420Y-8324170D02*
X14912420Y-8354170D01*
X14912420Y-8324170D02*
X14882420Y-8354170D01*
X14922940Y-11792750D02*
X14952940Y-11822750D01*
X14952940Y-11792750D02*
X14922940Y-11822750D01*
X14971680Y-8446380D02*
X15001680Y-8476380D01*
X15001680Y-8446380D02*
X14971680Y-8476380D01*
X15006990Y-8890950D02*
X15036990Y-8920950D01*
X15036990Y-8890950D02*
X15006990Y-8920950D01*
X15097170Y-8343620D02*
X15127170Y-8373620D01*
X15127170Y-8343620D02*
X15097170Y-8373620D01*
X15171230Y-9831410D02*
X15201230Y-9861410D01*
X15201230Y-9831410D02*
X15171230Y-9861410D01*
X15185000Y-10735000D02*
X15215000Y-10765000D01*
X15215000Y-10735000D02*
X15185000Y-10765000D01*
X15318240Y-10127030D02*
X15348240Y-10157030D01*
X15348240Y-10127030D02*
X15318240Y-10157030D01*
X15335000Y-8985000D02*
X15365000Y-9015000D01*
X15365000Y-8985000D02*
X15335000Y-9015000D01*
X15425000Y-4835000D02*
X15455000Y-4865000D01*
X15455000Y-4835000D02*
X15425000Y-4865000D01*
X15585000Y-8685000D02*
X15615000Y-8715000D01*
X15615000Y-8685000D02*
X15585000Y-8715000D01*
X15785000Y-8685000D02*
X15815000Y-8715000D01*
X15815000Y-8685000D02*
X15785000Y-8715000D01*
X16035000Y-8985000D02*
X16065000Y-9015000D01*
X16065000Y-8985000D02*
X16035000Y-9015000D01*
X16035000Y-10735000D02*
X16065000Y-10765000D01*
X16065000Y-10735000D02*
X16035000Y-10765000D01*
X13000000Y-3800000D02*
G75*
G02*
X12900000Y-3800000I-50000J0D01*
G01*
X12900000Y-3800000D02*
G75*
G02*
X13000000Y-3800000I50000J0D01*
G01*
X13000000Y-4054000D02*
G75*
G02*
X12900000Y-4054000I-50000J0D01*
G01*
X12900000Y-4054000D02*
G75*
G02*
X13000000Y-4054000I50000J0D01*
G01*
X13000000Y-4308000D02*
G75*
G02*
X12900000Y-4308000I-50000J0D01*
G01*
X12900000Y-4308000D02*
G75*
G02*
X13000000Y-4308000I50000J0D01*
G01*
X13000000Y-4562000D02*
G75*
G02*
X12900000Y-4562000I-50000J0D01*
G01*
X12900000Y-4562000D02*
G75*
G02*
X13000000Y-4562000I50000J0D01*
G01*
X13000000Y-4816000D02*
G75*
G02*
X12900000Y-4816000I-50000J0D01*
G01*
X12900000Y-4816000D02*
G75*
G02*
X13000000Y-4816000I50000J0D01*
G01*
X13000000Y-5070000D02*
G75*
G02*
X12900000Y-5070000I-50000J0D01*
G01*
X12900000Y-5070000D02*
G75*
G02*
X13000000Y-5070000I50000J0D01*
G01*
X13000000Y-5324000D02*
G75*
G02*
X12900000Y-5324000I-50000J0D01*
G01*
X12900000Y-5324000D02*
G75*
G02*
X13000000Y-5324000I50000J0D01*
G01*
X13000000Y-5578000D02*
G75*
G02*
X12900000Y-5578000I-50000J0D01*
G01*
X12900000Y-5578000D02*
G75*
G02*
X13000000Y-5578000I50000J0D01*
G01*
X13000000Y-5832000D02*
G75*
G02*
X12900000Y-5832000I-50000J0D01*
G01*
X12900000Y-5832000D02*
G75*
G02*
X13000000Y-5832000I50000J0D01*
G01*
X13000000Y-6086000D02*
G75*
G02*
X12900000Y-6086000I-50000J0D01*
G01*
X12900000Y-6086000D02*
G75*
G02*
X13000000Y-6086000I50000J0D01*
G01*
X13000000Y-6340000D02*
G75*
G02*
X12900000Y-6340000I-50000J0D01*
G01*
X12900000Y-6340000D02*
G75*
G02*
X13000000Y-6340000I50000J0D01*
G01*
X13000000Y-6594000D02*
G75*
G02*
X12900000Y-6594000I-50000J0D01*
G01*
X12900000Y-6594000D02*
G75*
G02*
X13000000Y-6594000I50000J0D01*
G01*
X13000000Y-6848000D02*
G75*
G02*
X12900000Y-6848000I-50000J0D01*
G01*
X12900000Y-6848000D02*
G75*
G02*
X13000000Y-6848000I50000J0D01*
G01*
X13000000Y-7102000D02*
G75*
G02*
X12900000Y-7102000I-50000J0D01*
G01*
X12900000Y-7102000D02*
G75*
G02*
X13000000Y-7102000I50000J0D01*
G01*
X13000000Y-7356000D02*
G75*
G02*
X12900000Y-7356000I-50000J0D01*
G01*
X12900000Y-7356000D02*
G75*
G02*
X13000000Y-7356000I50000J0D01*
G01*
X13000000Y-7610000D02*
G75*
G02*
X12900000Y-7610000I-50000J0D01*
G01*
X12900000Y-7610000D02*
G75*
G02*
X13000000Y-7610000I50000J0D01*
G01*
X15032000Y-4816000D02*
G75*
G02*
X14932000Y-4816000I-50000J0D01*
G01*
X14932000Y-4816000D02*
G75*
G02*
X15032000Y-4816000I50000J0D01*
G01*
X15032000Y-5070000D02*
G75*
G02*
X14932000Y-5070000I-50000J0D01*
G01*
X14932000Y-5070000D02*
G75*
G02*
X15032000Y-5070000I50000J0D01*
G01*
X15032000Y-5324000D02*
G75*
G02*
X14932000Y-5324000I-50000J0D01*
G01*
X14932000Y-5324000D02*
G75*
G02*
X15032000Y-5324000I50000J0D01*
G01*
X15032000Y-5578000D02*
G75*
G02*
X14932000Y-5578000I-50000J0D01*
G01*
X14932000Y-5578000D02*
G75*
G02*
X15032000Y-5578000I50000J0D01*
G01*
X15032000Y-5832000D02*
G75*
G02*
X14932000Y-5832000I-50000J0D01*
G01*
X14932000Y-5832000D02*
G75*
G02*
X15032000Y-5832000I50000J0D01*
G01*
X15032000Y-6086000D02*
G75*
G02*
X14932000Y-6086000I-50000J0D01*
G01*
X14932000Y-6086000D02*
G75*
G02*
X15032000Y-6086000I50000J0D01*
G01*
X15032000Y-6340000D02*
G75*
G02*
X14932000Y-6340000I-50000J0D01*
G01*
X14932000Y-6340000D02*
G75*
G02*
X15032000Y-6340000I50000J0D01*
G01*
X15032000Y-6594000D02*
G75*
G02*
X14932000Y-6594000I-50000J0D01*
G01*
X14932000Y-6594000D02*
G75*
G02*
X15032000Y-6594000I50000J0D01*
G01*
X15032000Y-6848000D02*
G75*
G02*
X14932000Y-6848000I-50000J0D01*
G01*
X14932000Y-6848000D02*
G75*
G02*
X15032000Y-6848000I50000J0D01*
G01*
X15032000Y-7102000D02*
G75*
G02*
X14932000Y-7102000I-50000J0D01*
G01*
X14932000Y-7102000D02*
G75*
G02*
X15032000Y-7102000I50000J0D01*
G01*
X15032000Y-7356000D02*
G75*
G02*
X14932000Y-7356000I-50000J0D01*
G01*
X14932000Y-7356000D02*
G75*
G02*
X15032000Y-7356000I50000J0D01*
G01*
X15032000Y-7610000D02*
G75*
G02*
X14932000Y-7610000I-50000J0D01*
G01*
X14932000Y-7610000D02*
G75*
G02*
X15032000Y-7610000I50000J0D01*
G01*
D13*
X8400000Y-3530000D02*
X8400000Y-3670000D01*
X8330000Y-3600000D02*
X8470000Y-3600000D01*
X8400000Y-4030000D02*
X8400000Y-4170000D01*
X8330000Y-4100000D02*
X8470000Y-4100000D01*
X8400000Y-4530000D02*
X8400000Y-4670000D01*
X8330000Y-4600000D02*
X8470000Y-4600000D01*
X8400000Y-5030000D02*
X8400000Y-5170000D01*
X8330000Y-5100000D02*
X8470000Y-5100000D01*
X8400000Y-5530000D02*
X8400000Y-5670000D01*
X8330000Y-5600000D02*
X8470000Y-5600000D01*
X8400000Y-6030000D02*
X8400000Y-6170000D01*
X8330000Y-6100000D02*
X8470000Y-6100000D01*
X8400000Y-6530000D02*
X8400000Y-6670000D01*
X8330000Y-6600000D02*
X8470000Y-6600000D01*
X8400000Y-7030000D02*
X8400000Y-7170000D01*
X8330000Y-7100000D02*
X8470000Y-7100000D01*
X8400000Y-7530000D02*
X8400000Y-7670000D01*
X8330000Y-7600000D02*
X8470000Y-7600000D01*
X8400000Y-8030000D02*
X8400000Y-8170000D01*
X8330000Y-8100000D02*
X8470000Y-8100000D01*
X8400000Y-8530000D02*
X8400000Y-8670000D01*
X8330000Y-8600000D02*
X8470000Y-8600000D01*
X8400000Y-9030000D02*
X8400000Y-9170000D01*
X8330000Y-9100000D02*
X8470000Y-9100000D01*
X8400000Y-9530000D02*
X8400000Y-9670000D01*
X8330000Y-9600000D02*
X8470000Y-9600000D01*
X8400000Y-10030000D02*
X8400000Y-10170000D01*
X8330000Y-10100000D02*
X8470000Y-10100000D01*
X8400000Y-10530000D02*
X8400000Y-10670000D01*
X8330000Y-10600000D02*
X8470000Y-10600000D01*
X11250000Y-3518000D02*
X11250000Y-3658000D01*
X11180000Y-3588000D02*
X11320000Y-3588000D01*
X11250000Y-4026000D02*
X11250000Y-4166000D01*
X11180000Y-4096000D02*
X11320000Y-4096000D01*
X11250000Y-4534000D02*
X11250000Y-4674000D01*
X11180000Y-4604000D02*
X11320000Y-4604000D01*
X11250000Y-5042000D02*
X11250000Y-5182000D01*
X11180000Y-5112000D02*
X11320000Y-5112000D01*
X11250000Y-5550000D02*
X11250000Y-5690000D01*
X11180000Y-5620000D02*
X11320000Y-5620000D01*
X11250000Y-6058000D02*
X11250000Y-6198000D01*
X11180000Y-6128000D02*
X11320000Y-6128000D01*
X11250000Y-6566000D02*
X11250000Y-6706000D01*
X11180000Y-6636000D02*
X11320000Y-6636000D01*
X11250000Y-7074000D02*
X11250000Y-7214000D01*
X11180000Y-7144000D02*
X11320000Y-7144000D01*
X11250000Y-7582000D02*
X11250000Y-7722000D01*
X11180000Y-7652000D02*
X11320000Y-7652000D01*
X11250000Y-8090000D02*
X11250000Y-8230000D01*
X11180000Y-8160000D02*
X11320000Y-8160000D01*
X11250000Y-8598000D02*
X11250000Y-8738000D01*
X11180000Y-8668000D02*
X11320000Y-8668000D01*
X11250000Y-9106000D02*
X11250000Y-9246000D01*
X11180000Y-9176000D02*
X11320000Y-9176000D01*
X11250000Y-9614000D02*
X11250000Y-9754000D01*
X11180000Y-9684000D02*
X11320000Y-9684000D01*
X11250000Y-10122000D02*
X11250000Y-10262000D01*
X11180000Y-10192000D02*
X11320000Y-10192000D01*
X11250000Y-10630000D02*
X11250000Y-10770000D01*
X11180000Y-10700000D02*
X11320000Y-10700000D01*
D11*
X7408277Y-13213984D02*
X7408277Y-13013984D01*
X7408277Y-13013984D02*
X7455896Y-13013984D01*
X7455896Y-13013984D02*
X7484467Y-13023508D01*
X7484467Y-13023508D02*
X7503515Y-13042555D01*
X7503515Y-13042555D02*
X7513039Y-13061603D01*
X7513039Y-13061603D02*
X7522562Y-13099698D01*
X7522562Y-13099698D02*
X7522562Y-13128269D01*
X7522562Y-13128269D02*
X7513039Y-13166365D01*
X7513039Y-13166365D02*
X7503515Y-13185412D01*
X7503515Y-13185412D02*
X7484467Y-13204460D01*
X7484467Y-13204460D02*
X7455896Y-13213984D01*
X7455896Y-13213984D02*
X7408277Y-13213984D01*
X7608277Y-13213984D02*
X7608277Y-13080650D01*
X7608277Y-13118746D02*
X7617801Y-13099698D01*
X7617801Y-13099698D02*
X7627324Y-13090174D01*
X7627324Y-13090174D02*
X7646372Y-13080650D01*
X7646372Y-13080650D02*
X7665420Y-13080650D01*
X7732086Y-13213984D02*
X7732086Y-13080650D01*
X7732086Y-13013984D02*
X7722562Y-13023508D01*
X7722562Y-13023508D02*
X7732086Y-13033031D01*
X7732086Y-13033031D02*
X7741610Y-13023508D01*
X7741610Y-13023508D02*
X7732086Y-13013984D01*
X7732086Y-13013984D02*
X7732086Y-13033031D01*
X7855896Y-13213984D02*
X7836848Y-13204460D01*
X7836848Y-13204460D02*
X7827324Y-13185412D01*
X7827324Y-13185412D02*
X7827324Y-13013984D01*
X7960658Y-13213984D02*
X7941610Y-13204460D01*
X7941610Y-13204460D02*
X7932086Y-13185412D01*
X7932086Y-13185412D02*
X7932086Y-13013984D01*
X8189229Y-13213984D02*
X8189229Y-13013984D01*
X8189229Y-13013984D02*
X8255896Y-13156841D01*
X8255896Y-13156841D02*
X8322562Y-13013984D01*
X8322562Y-13013984D02*
X8322562Y-13213984D01*
X8503515Y-13213984D02*
X8503515Y-13109222D01*
X8503515Y-13109222D02*
X8493991Y-13090174D01*
X8493991Y-13090174D02*
X8474944Y-13080650D01*
X8474944Y-13080650D02*
X8436848Y-13080650D01*
X8436848Y-13080650D02*
X8417801Y-13090174D01*
X8503515Y-13204460D02*
X8484467Y-13213984D01*
X8484467Y-13213984D02*
X8436848Y-13213984D01*
X8436848Y-13213984D02*
X8417801Y-13204460D01*
X8417801Y-13204460D02*
X8408277Y-13185412D01*
X8408277Y-13185412D02*
X8408277Y-13166365D01*
X8408277Y-13166365D02*
X8417801Y-13147317D01*
X8417801Y-13147317D02*
X8436848Y-13137793D01*
X8436848Y-13137793D02*
X8484467Y-13137793D01*
X8484467Y-13137793D02*
X8503515Y-13128269D01*
X8598753Y-13080650D02*
X8598753Y-13280650D01*
X8598753Y-13090174D02*
X8617801Y-13080650D01*
X8617801Y-13080650D02*
X8655896Y-13080650D01*
X8655896Y-13080650D02*
X8674944Y-13090174D01*
X8674944Y-13090174D02*
X8684467Y-13099698D01*
X8684467Y-13099698D02*
X8693991Y-13118746D01*
X8693991Y-13118746D02*
X8693991Y-13175888D01*
X8693991Y-13175888D02*
X8684467Y-13194936D01*
X8684467Y-13194936D02*
X8674944Y-13204460D01*
X8674944Y-13204460D02*
X8655896Y-13213984D01*
X8655896Y-13213984D02*
X8617801Y-13213984D01*
X8617801Y-13213984D02*
X8598753Y-13204460D01*
X8779705Y-13194936D02*
X8789229Y-13204460D01*
X8789229Y-13204460D02*
X8779705Y-13213984D01*
X8779705Y-13213984D02*
X8770182Y-13204460D01*
X8770182Y-13204460D02*
X8779705Y-13194936D01*
X8779705Y-13194936D02*
X8779705Y-13213984D01*
X8779705Y-13090174D02*
X8789229Y-13099698D01*
X8789229Y-13099698D02*
X8779705Y-13109222D01*
X8779705Y-13109222D02*
X8770182Y-13099698D01*
X8770182Y-13099698D02*
X8779705Y-13090174D01*
X8779705Y-13090174D02*
X8779705Y-13109222D01*
D12*
X7117500Y-13527500D02*
X7147500Y-13557500D01*
X7147500Y-13527500D02*
X7117500Y-13557500D01*
D11*
X7446372Y-13433984D02*
X7465420Y-13433984D01*
X7465420Y-13433984D02*
X7484467Y-13443508D01*
X7484467Y-13443508D02*
X7493991Y-13453031D01*
X7493991Y-13453031D02*
X7503515Y-13472079D01*
X7503515Y-13472079D02*
X7513039Y-13510174D01*
X7513039Y-13510174D02*
X7513039Y-13557793D01*
X7513039Y-13557793D02*
X7503515Y-13595888D01*
X7503515Y-13595888D02*
X7493991Y-13614936D01*
X7493991Y-13614936D02*
X7484467Y-13624460D01*
X7484467Y-13624460D02*
X7465420Y-13633984D01*
X7465420Y-13633984D02*
X7446372Y-13633984D01*
X7446372Y-13633984D02*
X7427324Y-13624460D01*
X7427324Y-13624460D02*
X7417801Y-13614936D01*
X7417801Y-13614936D02*
X7408277Y-13595888D01*
X7408277Y-13595888D02*
X7398753Y-13557793D01*
X7398753Y-13557793D02*
X7398753Y-13510174D01*
X7398753Y-13510174D02*
X7408277Y-13472079D01*
X7408277Y-13472079D02*
X7417801Y-13453031D01*
X7417801Y-13453031D02*
X7427324Y-13443508D01*
X7427324Y-13443508D02*
X7446372Y-13433984D01*
X7598753Y-13614936D02*
X7608277Y-13624460D01*
X7608277Y-13624460D02*
X7598753Y-13633984D01*
X7598753Y-13633984D02*
X7589229Y-13624460D01*
X7589229Y-13624460D02*
X7598753Y-13614936D01*
X7598753Y-13614936D02*
X7598753Y-13633984D01*
X7674943Y-13433984D02*
X7798753Y-13433984D01*
X7798753Y-13433984D02*
X7732086Y-13510174D01*
X7732086Y-13510174D02*
X7760658Y-13510174D01*
X7760658Y-13510174D02*
X7779705Y-13519698D01*
X7779705Y-13519698D02*
X7789229Y-13529222D01*
X7789229Y-13529222D02*
X7798753Y-13548269D01*
X7798753Y-13548269D02*
X7798753Y-13595888D01*
X7798753Y-13595888D02*
X7789229Y-13614936D01*
X7789229Y-13614936D02*
X7779705Y-13624460D01*
X7779705Y-13624460D02*
X7760658Y-13633984D01*
X7760658Y-13633984D02*
X7703515Y-13633984D01*
X7703515Y-13633984D02*
X7684467Y-13624460D01*
X7684467Y-13624460D02*
X7674943Y-13614936D01*
X7922562Y-13433984D02*
X7941610Y-13433984D01*
X7941610Y-13433984D02*
X7960658Y-13443508D01*
X7960658Y-13443508D02*
X7970182Y-13453031D01*
X7970182Y-13453031D02*
X7979705Y-13472079D01*
X7979705Y-13472079D02*
X7989229Y-13510174D01*
X7989229Y-13510174D02*
X7989229Y-13557793D01*
X7989229Y-13557793D02*
X7979705Y-13595888D01*
X7979705Y-13595888D02*
X7970182Y-13614936D01*
X7970182Y-13614936D02*
X7960658Y-13624460D01*
X7960658Y-13624460D02*
X7941610Y-13633984D01*
X7941610Y-13633984D02*
X7922562Y-13633984D01*
X7922562Y-13633984D02*
X7903515Y-13624460D01*
X7903515Y-13624460D02*
X7893991Y-13614936D01*
X7893991Y-13614936D02*
X7884467Y-13595888D01*
X7884467Y-13595888D02*
X7874943Y-13557793D01*
X7874943Y-13557793D02*
X7874943Y-13510174D01*
X7874943Y-13510174D02*
X7884467Y-13472079D01*
X7884467Y-13472079D02*
X7893991Y-13453031D01*
X7893991Y-13453031D02*
X7903515Y-13443508D01*
X7903515Y-13443508D02*
X7922562Y-13433984D01*
X8113039Y-13433984D02*
X8132086Y-13433984D01*
X8132086Y-13433984D02*
X8151134Y-13443508D01*
X8151134Y-13443508D02*
X8160658Y-13453031D01*
X8160658Y-13453031D02*
X8170182Y-13472079D01*
X8170182Y-13472079D02*
X8179705Y-13510174D01*
X8179705Y-13510174D02*
X8179705Y-13557793D01*
X8179705Y-13557793D02*
X8170182Y-13595888D01*
X8170182Y-13595888D02*
X8160658Y-13614936D01*
X8160658Y-13614936D02*
X8151134Y-13624460D01*
X8151134Y-13624460D02*
X8132086Y-13633984D01*
X8132086Y-13633984D02*
X8113039Y-13633984D01*
X8113039Y-13633984D02*
X8093991Y-13624460D01*
X8093991Y-13624460D02*
X8084467Y-13614936D01*
X8084467Y-13614936D02*
X8074943Y-13595888D01*
X8074943Y-13595888D02*
X8065420Y-13557793D01*
X8065420Y-13557793D02*
X8065420Y-13510174D01*
X8065420Y-13510174D02*
X8074943Y-13472079D01*
X8074943Y-13472079D02*
X8084467Y-13453031D01*
X8084467Y-13453031D02*
X8093991Y-13443508D01*
X8093991Y-13443508D02*
X8113039Y-13433984D01*
X8265420Y-13633984D02*
X8265420Y-13500650D01*
X8265420Y-13519698D02*
X8274943Y-13510174D01*
X8274943Y-13510174D02*
X8293991Y-13500650D01*
X8293991Y-13500650D02*
X8322563Y-13500650D01*
X8322563Y-13500650D02*
X8341610Y-13510174D01*
X8341610Y-13510174D02*
X8351134Y-13529222D01*
X8351134Y-13529222D02*
X8351134Y-13633984D01*
X8351134Y-13529222D02*
X8360658Y-13510174D01*
X8360658Y-13510174D02*
X8379705Y-13500650D01*
X8379705Y-13500650D02*
X8408277Y-13500650D01*
X8408277Y-13500650D02*
X8427325Y-13510174D01*
X8427325Y-13510174D02*
X8436848Y-13529222D01*
X8436848Y-13529222D02*
X8436848Y-13633984D01*
X8532086Y-13633984D02*
X8532086Y-13500650D01*
X8532086Y-13519698D02*
X8541610Y-13510174D01*
X8541610Y-13510174D02*
X8560658Y-13500650D01*
X8560658Y-13500650D02*
X8589229Y-13500650D01*
X8589229Y-13500650D02*
X8608277Y-13510174D01*
X8608277Y-13510174D02*
X8617801Y-13529222D01*
X8617801Y-13529222D02*
X8617801Y-13633984D01*
X8617801Y-13529222D02*
X8627325Y-13510174D01*
X8627325Y-13510174D02*
X8646372Y-13500650D01*
X8646372Y-13500650D02*
X8674944Y-13500650D01*
X8674944Y-13500650D02*
X8693991Y-13510174D01*
X8693991Y-13510174D02*
X8703515Y-13529222D01*
X8703515Y-13529222D02*
X8703515Y-13633984D01*
X9093991Y-13424460D02*
X8922563Y-13681603D01*
X9351134Y-13433984D02*
X9370182Y-13433984D01*
X9370182Y-13433984D02*
X9389229Y-13443508D01*
X9389229Y-13443508D02*
X9398753Y-13453031D01*
X9398753Y-13453031D02*
X9408277Y-13472079D01*
X9408277Y-13472079D02*
X9417801Y-13510174D01*
X9417801Y-13510174D02*
X9417801Y-13557793D01*
X9417801Y-13557793D02*
X9408277Y-13595888D01*
X9408277Y-13595888D02*
X9398753Y-13614936D01*
X9398753Y-13614936D02*
X9389229Y-13624460D01*
X9389229Y-13624460D02*
X9370182Y-13633984D01*
X9370182Y-13633984D02*
X9351134Y-13633984D01*
X9351134Y-13633984D02*
X9332087Y-13624460D01*
X9332087Y-13624460D02*
X9322563Y-13614936D01*
X9322563Y-13614936D02*
X9313039Y-13595888D01*
X9313039Y-13595888D02*
X9303515Y-13557793D01*
X9303515Y-13557793D02*
X9303515Y-13510174D01*
X9303515Y-13510174D02*
X9313039Y-13472079D01*
X9313039Y-13472079D02*
X9322563Y-13453031D01*
X9322563Y-13453031D02*
X9332087Y-13443508D01*
X9332087Y-13443508D02*
X9351134Y-13433984D01*
X9503515Y-13614936D02*
X9513039Y-13624460D01*
X9513039Y-13624460D02*
X9503515Y-13633984D01*
X9503515Y-13633984D02*
X9493991Y-13624460D01*
X9493991Y-13624460D02*
X9503515Y-13614936D01*
X9503515Y-13614936D02*
X9503515Y-13633984D01*
X9636848Y-13433984D02*
X9655896Y-13433984D01*
X9655896Y-13433984D02*
X9674944Y-13443508D01*
X9674944Y-13443508D02*
X9684468Y-13453031D01*
X9684468Y-13453031D02*
X9693991Y-13472079D01*
X9693991Y-13472079D02*
X9703515Y-13510174D01*
X9703515Y-13510174D02*
X9703515Y-13557793D01*
X9703515Y-13557793D02*
X9693991Y-13595888D01*
X9693991Y-13595888D02*
X9684468Y-13614936D01*
X9684468Y-13614936D02*
X9674944Y-13624460D01*
X9674944Y-13624460D02*
X9655896Y-13633984D01*
X9655896Y-13633984D02*
X9636848Y-13633984D01*
X9636848Y-13633984D02*
X9617801Y-13624460D01*
X9617801Y-13624460D02*
X9608277Y-13614936D01*
X9608277Y-13614936D02*
X9598753Y-13595888D01*
X9598753Y-13595888D02*
X9589229Y-13557793D01*
X9589229Y-13557793D02*
X9589229Y-13510174D01*
X9589229Y-13510174D02*
X9598753Y-13472079D01*
X9598753Y-13472079D02*
X9608277Y-13453031D01*
X9608277Y-13453031D02*
X9617801Y-13443508D01*
X9617801Y-13443508D02*
X9636848Y-13433984D01*
X9893991Y-13633984D02*
X9779706Y-13633984D01*
X9836848Y-13633984D02*
X9836848Y-13433984D01*
X9836848Y-13433984D02*
X9817801Y-13462555D01*
X9817801Y-13462555D02*
X9798753Y-13481603D01*
X9798753Y-13481603D02*
X9779706Y-13491127D01*
X10084468Y-13633984D02*
X9970182Y-13633984D01*
X10027325Y-13633984D02*
X10027325Y-13433984D01*
X10027325Y-13433984D02*
X10008277Y-13462555D01*
X10008277Y-13462555D02*
X9989229Y-13481603D01*
X9989229Y-13481603D02*
X9970182Y-13491127D01*
X10198753Y-13519698D02*
X10179706Y-13510174D01*
X10179706Y-13510174D02*
X10170182Y-13500650D01*
X10170182Y-13500650D02*
X10160658Y-13481603D01*
X10160658Y-13481603D02*
X10160658Y-13472079D01*
X10160658Y-13472079D02*
X10170182Y-13453031D01*
X10170182Y-13453031D02*
X10179706Y-13443508D01*
X10179706Y-13443508D02*
X10198753Y-13433984D01*
X10198753Y-13433984D02*
X10236849Y-13433984D01*
X10236849Y-13433984D02*
X10255896Y-13443508D01*
X10255896Y-13443508D02*
X10265420Y-13453031D01*
X10265420Y-13453031D02*
X10274944Y-13472079D01*
X10274944Y-13472079D02*
X10274944Y-13481603D01*
X10274944Y-13481603D02*
X10265420Y-13500650D01*
X10265420Y-13500650D02*
X10255896Y-13510174D01*
X10255896Y-13510174D02*
X10236849Y-13519698D01*
X10236849Y-13519698D02*
X10198753Y-13519698D01*
X10198753Y-13519698D02*
X10179706Y-13529222D01*
X10179706Y-13529222D02*
X10170182Y-13538746D01*
X10170182Y-13538746D02*
X10160658Y-13557793D01*
X10160658Y-13557793D02*
X10160658Y-13595888D01*
X10160658Y-13595888D02*
X10170182Y-13614936D01*
X10170182Y-13614936D02*
X10179706Y-13624460D01*
X10179706Y-13624460D02*
X10198753Y-13633984D01*
X10198753Y-13633984D02*
X10236849Y-13633984D01*
X10236849Y-13633984D02*
X10255896Y-13624460D01*
X10255896Y-13624460D02*
X10265420Y-13614936D01*
X10265420Y-13614936D02*
X10274944Y-13595888D01*
X10274944Y-13595888D02*
X10274944Y-13557793D01*
X10274944Y-13557793D02*
X10265420Y-13538746D01*
X10265420Y-13538746D02*
X10255896Y-13529222D01*
X10255896Y-13529222D02*
X10236849Y-13519698D01*
X10351134Y-13433984D02*
X10351134Y-13472079D01*
X10427325Y-13433984D02*
X10427325Y-13472079D01*
X10722563Y-13710174D02*
X10713039Y-13700650D01*
X10713039Y-13700650D02*
X10693991Y-13672079D01*
X10693991Y-13672079D02*
X10684468Y-13653031D01*
X10684468Y-13653031D02*
X10674944Y-13624460D01*
X10674944Y-13624460D02*
X10665420Y-13576841D01*
X10665420Y-13576841D02*
X10665420Y-13538746D01*
X10665420Y-13538746D02*
X10674944Y-13491127D01*
X10674944Y-13491127D02*
X10684468Y-13462555D01*
X10684468Y-13462555D02*
X10693991Y-13443508D01*
X10693991Y-13443508D02*
X10713039Y-13414936D01*
X10713039Y-13414936D02*
X10722563Y-13405412D01*
X10884468Y-13433984D02*
X10846372Y-13433984D01*
X10846372Y-13433984D02*
X10827325Y-13443508D01*
X10827325Y-13443508D02*
X10817801Y-13453031D01*
X10817801Y-13453031D02*
X10798753Y-13481603D01*
X10798753Y-13481603D02*
X10789230Y-13519698D01*
X10789230Y-13519698D02*
X10789230Y-13595888D01*
X10789230Y-13595888D02*
X10798753Y-13614936D01*
X10798753Y-13614936D02*
X10808277Y-13624460D01*
X10808277Y-13624460D02*
X10827325Y-13633984D01*
X10827325Y-13633984D02*
X10865420Y-13633984D01*
X10865420Y-13633984D02*
X10884468Y-13624460D01*
X10884468Y-13624460D02*
X10893991Y-13614936D01*
X10893991Y-13614936D02*
X10903515Y-13595888D01*
X10903515Y-13595888D02*
X10903515Y-13548269D01*
X10903515Y-13548269D02*
X10893991Y-13529222D01*
X10893991Y-13529222D02*
X10884468Y-13519698D01*
X10884468Y-13519698D02*
X10865420Y-13510174D01*
X10865420Y-13510174D02*
X10827325Y-13510174D01*
X10827325Y-13510174D02*
X10808277Y-13519698D01*
X10808277Y-13519698D02*
X10798753Y-13529222D01*
X10798753Y-13529222D02*
X10789230Y-13548269D01*
X10979706Y-13453031D02*
X10989230Y-13443508D01*
X10989230Y-13443508D02*
X11008277Y-13433984D01*
X11008277Y-13433984D02*
X11055896Y-13433984D01*
X11055896Y-13433984D02*
X11074944Y-13443508D01*
X11074944Y-13443508D02*
X11084468Y-13453031D01*
X11084468Y-13453031D02*
X11093991Y-13472079D01*
X11093991Y-13472079D02*
X11093991Y-13491127D01*
X11093991Y-13491127D02*
X11084468Y-13519698D01*
X11084468Y-13519698D02*
X10970182Y-13633984D01*
X10970182Y-13633984D02*
X11093991Y-13633984D01*
X11332087Y-13633984D02*
X11332087Y-13433984D01*
X11417801Y-13633984D02*
X11417801Y-13529222D01*
X11417801Y-13529222D02*
X11408277Y-13510174D01*
X11408277Y-13510174D02*
X11389230Y-13500650D01*
X11389230Y-13500650D02*
X11360658Y-13500650D01*
X11360658Y-13500650D02*
X11341610Y-13510174D01*
X11341610Y-13510174D02*
X11332087Y-13519698D01*
X11541610Y-13633984D02*
X11522563Y-13624460D01*
X11522563Y-13624460D02*
X11513039Y-13614936D01*
X11513039Y-13614936D02*
X11503515Y-13595888D01*
X11503515Y-13595888D02*
X11503515Y-13538746D01*
X11503515Y-13538746D02*
X11513039Y-13519698D01*
X11513039Y-13519698D02*
X11522563Y-13510174D01*
X11522563Y-13510174D02*
X11541610Y-13500650D01*
X11541610Y-13500650D02*
X11570182Y-13500650D01*
X11570182Y-13500650D02*
X11589230Y-13510174D01*
X11589230Y-13510174D02*
X11598753Y-13519698D01*
X11598753Y-13519698D02*
X11608277Y-13538746D01*
X11608277Y-13538746D02*
X11608277Y-13595888D01*
X11608277Y-13595888D02*
X11598753Y-13614936D01*
X11598753Y-13614936D02*
X11589230Y-13624460D01*
X11589230Y-13624460D02*
X11570182Y-13633984D01*
X11570182Y-13633984D02*
X11541610Y-13633984D01*
X11722563Y-13633984D02*
X11703515Y-13624460D01*
X11703515Y-13624460D02*
X11693991Y-13605412D01*
X11693991Y-13605412D02*
X11693991Y-13433984D01*
X11874944Y-13624460D02*
X11855896Y-13633984D01*
X11855896Y-13633984D02*
X11817801Y-13633984D01*
X11817801Y-13633984D02*
X11798753Y-13624460D01*
X11798753Y-13624460D02*
X11789230Y-13605412D01*
X11789230Y-13605412D02*
X11789230Y-13529222D01*
X11789230Y-13529222D02*
X11798753Y-13510174D01*
X11798753Y-13510174D02*
X11817801Y-13500650D01*
X11817801Y-13500650D02*
X11855896Y-13500650D01*
X11855896Y-13500650D02*
X11874944Y-13510174D01*
X11874944Y-13510174D02*
X11884468Y-13529222D01*
X11884468Y-13529222D02*
X11884468Y-13548269D01*
X11884468Y-13548269D02*
X11789230Y-13567317D01*
X11960658Y-13624460D02*
X11979706Y-13633984D01*
X11979706Y-13633984D02*
X12017801Y-13633984D01*
X12017801Y-13633984D02*
X12036849Y-13624460D01*
X12036849Y-13624460D02*
X12046372Y-13605412D01*
X12046372Y-13605412D02*
X12046372Y-13595888D01*
X12046372Y-13595888D02*
X12036849Y-13576841D01*
X12036849Y-13576841D02*
X12017801Y-13567317D01*
X12017801Y-13567317D02*
X11989230Y-13567317D01*
X11989230Y-13567317D02*
X11970182Y-13557793D01*
X11970182Y-13557793D02*
X11960658Y-13538746D01*
X11960658Y-13538746D02*
X11960658Y-13529222D01*
X11960658Y-13529222D02*
X11970182Y-13510174D01*
X11970182Y-13510174D02*
X11989230Y-13500650D01*
X11989230Y-13500650D02*
X12017801Y-13500650D01*
X12017801Y-13500650D02*
X12036849Y-13510174D01*
X12113039Y-13710174D02*
X12122563Y-13700650D01*
X12122563Y-13700650D02*
X12141611Y-13672079D01*
X12141611Y-13672079D02*
X12151134Y-13653031D01*
X12151134Y-13653031D02*
X12160658Y-13624460D01*
X12160658Y-13624460D02*
X12170182Y-13576841D01*
X12170182Y-13576841D02*
X12170182Y-13538746D01*
X12170182Y-13538746D02*
X12160658Y-13491127D01*
X12160658Y-13491127D02*
X12151134Y-13462555D01*
X12151134Y-13462555D02*
X12141611Y-13443508D01*
X12141611Y-13443508D02*
X12122563Y-13414936D01*
X12122563Y-13414936D02*
X12113039Y-13405412D01*
D12*
X7147500Y-13806500D02*
G75*
G02*
X7047500Y-13806500I-50000J0D01*
G01*
X7047500Y-13806500D02*
G75*
G02*
X7147500Y-13806500I50000J0D01*
G01*
D11*
X7513039Y-13897984D02*
X7398753Y-13897984D01*
X7455896Y-13897984D02*
X7455896Y-13697984D01*
X7455896Y-13697984D02*
X7436848Y-13726555D01*
X7436848Y-13726555D02*
X7417801Y-13745603D01*
X7417801Y-13745603D02*
X7398753Y-13755127D01*
X7598753Y-13878936D02*
X7608277Y-13888460D01*
X7608277Y-13888460D02*
X7598753Y-13897984D01*
X7598753Y-13897984D02*
X7589229Y-13888460D01*
X7589229Y-13888460D02*
X7598753Y-13878936D01*
X7598753Y-13878936D02*
X7598753Y-13897984D01*
X7732086Y-13697984D02*
X7751134Y-13697984D01*
X7751134Y-13697984D02*
X7770182Y-13707508D01*
X7770182Y-13707508D02*
X7779705Y-13717031D01*
X7779705Y-13717031D02*
X7789229Y-13736079D01*
X7789229Y-13736079D02*
X7798753Y-13774174D01*
X7798753Y-13774174D02*
X7798753Y-13821793D01*
X7798753Y-13821793D02*
X7789229Y-13859888D01*
X7789229Y-13859888D02*
X7779705Y-13878936D01*
X7779705Y-13878936D02*
X7770182Y-13888460D01*
X7770182Y-13888460D02*
X7751134Y-13897984D01*
X7751134Y-13897984D02*
X7732086Y-13897984D01*
X7732086Y-13897984D02*
X7713039Y-13888460D01*
X7713039Y-13888460D02*
X7703515Y-13878936D01*
X7703515Y-13878936D02*
X7693991Y-13859888D01*
X7693991Y-13859888D02*
X7684467Y-13821793D01*
X7684467Y-13821793D02*
X7684467Y-13774174D01*
X7684467Y-13774174D02*
X7693991Y-13736079D01*
X7693991Y-13736079D02*
X7703515Y-13717031D01*
X7703515Y-13717031D02*
X7713039Y-13707508D01*
X7713039Y-13707508D02*
X7732086Y-13697984D01*
X7922562Y-13697984D02*
X7941610Y-13697984D01*
X7941610Y-13697984D02*
X7960658Y-13707508D01*
X7960658Y-13707508D02*
X7970182Y-13717031D01*
X7970182Y-13717031D02*
X7979705Y-13736079D01*
X7979705Y-13736079D02*
X7989229Y-13774174D01*
X7989229Y-13774174D02*
X7989229Y-13821793D01*
X7989229Y-13821793D02*
X7979705Y-13859888D01*
X7979705Y-13859888D02*
X7970182Y-13878936D01*
X7970182Y-13878936D02*
X7960658Y-13888460D01*
X7960658Y-13888460D02*
X7941610Y-13897984D01*
X7941610Y-13897984D02*
X7922562Y-13897984D01*
X7922562Y-13897984D02*
X7903515Y-13888460D01*
X7903515Y-13888460D02*
X7893991Y-13878936D01*
X7893991Y-13878936D02*
X7884467Y-13859888D01*
X7884467Y-13859888D02*
X7874943Y-13821793D01*
X7874943Y-13821793D02*
X7874943Y-13774174D01*
X7874943Y-13774174D02*
X7884467Y-13736079D01*
X7884467Y-13736079D02*
X7893991Y-13717031D01*
X7893991Y-13717031D02*
X7903515Y-13707508D01*
X7903515Y-13707508D02*
X7922562Y-13697984D01*
X8113039Y-13697984D02*
X8132086Y-13697984D01*
X8132086Y-13697984D02*
X8151134Y-13707508D01*
X8151134Y-13707508D02*
X8160658Y-13717031D01*
X8160658Y-13717031D02*
X8170182Y-13736079D01*
X8170182Y-13736079D02*
X8179705Y-13774174D01*
X8179705Y-13774174D02*
X8179705Y-13821793D01*
X8179705Y-13821793D02*
X8170182Y-13859888D01*
X8170182Y-13859888D02*
X8160658Y-13878936D01*
X8160658Y-13878936D02*
X8151134Y-13888460D01*
X8151134Y-13888460D02*
X8132086Y-13897984D01*
X8132086Y-13897984D02*
X8113039Y-13897984D01*
X8113039Y-13897984D02*
X8093991Y-13888460D01*
X8093991Y-13888460D02*
X8084467Y-13878936D01*
X8084467Y-13878936D02*
X8074943Y-13859888D01*
X8074943Y-13859888D02*
X8065420Y-13821793D01*
X8065420Y-13821793D02*
X8065420Y-13774174D01*
X8065420Y-13774174D02*
X8074943Y-13736079D01*
X8074943Y-13736079D02*
X8084467Y-13717031D01*
X8084467Y-13717031D02*
X8093991Y-13707508D01*
X8093991Y-13707508D02*
X8113039Y-13697984D01*
X8265420Y-13897984D02*
X8265420Y-13764650D01*
X8265420Y-13783698D02*
X8274943Y-13774174D01*
X8274943Y-13774174D02*
X8293991Y-13764650D01*
X8293991Y-13764650D02*
X8322563Y-13764650D01*
X8322563Y-13764650D02*
X8341610Y-13774174D01*
X8341610Y-13774174D02*
X8351134Y-13793222D01*
X8351134Y-13793222D02*
X8351134Y-13897984D01*
X8351134Y-13793222D02*
X8360658Y-13774174D01*
X8360658Y-13774174D02*
X8379705Y-13764650D01*
X8379705Y-13764650D02*
X8408277Y-13764650D01*
X8408277Y-13764650D02*
X8427325Y-13774174D01*
X8427325Y-13774174D02*
X8436848Y-13793222D01*
X8436848Y-13793222D02*
X8436848Y-13897984D01*
X8532086Y-13897984D02*
X8532086Y-13764650D01*
X8532086Y-13783698D02*
X8541610Y-13774174D01*
X8541610Y-13774174D02*
X8560658Y-13764650D01*
X8560658Y-13764650D02*
X8589229Y-13764650D01*
X8589229Y-13764650D02*
X8608277Y-13774174D01*
X8608277Y-13774174D02*
X8617801Y-13793222D01*
X8617801Y-13793222D02*
X8617801Y-13897984D01*
X8617801Y-13793222D02*
X8627325Y-13774174D01*
X8627325Y-13774174D02*
X8646372Y-13764650D01*
X8646372Y-13764650D02*
X8674944Y-13764650D01*
X8674944Y-13764650D02*
X8693991Y-13774174D01*
X8693991Y-13774174D02*
X8703515Y-13793222D01*
X8703515Y-13793222D02*
X8703515Y-13897984D01*
X9093991Y-13688460D02*
X8922563Y-13945603D01*
X9351134Y-13697984D02*
X9370182Y-13697984D01*
X9370182Y-13697984D02*
X9389229Y-13707508D01*
X9389229Y-13707508D02*
X9398753Y-13717031D01*
X9398753Y-13717031D02*
X9408277Y-13736079D01*
X9408277Y-13736079D02*
X9417801Y-13774174D01*
X9417801Y-13774174D02*
X9417801Y-13821793D01*
X9417801Y-13821793D02*
X9408277Y-13859888D01*
X9408277Y-13859888D02*
X9398753Y-13878936D01*
X9398753Y-13878936D02*
X9389229Y-13888460D01*
X9389229Y-13888460D02*
X9370182Y-13897984D01*
X9370182Y-13897984D02*
X9351134Y-13897984D01*
X9351134Y-13897984D02*
X9332087Y-13888460D01*
X9332087Y-13888460D02*
X9322563Y-13878936D01*
X9322563Y-13878936D02*
X9313039Y-13859888D01*
X9313039Y-13859888D02*
X9303515Y-13821793D01*
X9303515Y-13821793D02*
X9303515Y-13774174D01*
X9303515Y-13774174D02*
X9313039Y-13736079D01*
X9313039Y-13736079D02*
X9322563Y-13717031D01*
X9322563Y-13717031D02*
X9332087Y-13707508D01*
X9332087Y-13707508D02*
X9351134Y-13697984D01*
X9503515Y-13878936D02*
X9513039Y-13888460D01*
X9513039Y-13888460D02*
X9503515Y-13897984D01*
X9503515Y-13897984D02*
X9493991Y-13888460D01*
X9493991Y-13888460D02*
X9503515Y-13878936D01*
X9503515Y-13878936D02*
X9503515Y-13897984D01*
X9636848Y-13697984D02*
X9655896Y-13697984D01*
X9655896Y-13697984D02*
X9674944Y-13707508D01*
X9674944Y-13707508D02*
X9684468Y-13717031D01*
X9684468Y-13717031D02*
X9693991Y-13736079D01*
X9693991Y-13736079D02*
X9703515Y-13774174D01*
X9703515Y-13774174D02*
X9703515Y-13821793D01*
X9703515Y-13821793D02*
X9693991Y-13859888D01*
X9693991Y-13859888D02*
X9684468Y-13878936D01*
X9684468Y-13878936D02*
X9674944Y-13888460D01*
X9674944Y-13888460D02*
X9655896Y-13897984D01*
X9655896Y-13897984D02*
X9636848Y-13897984D01*
X9636848Y-13897984D02*
X9617801Y-13888460D01*
X9617801Y-13888460D02*
X9608277Y-13878936D01*
X9608277Y-13878936D02*
X9598753Y-13859888D01*
X9598753Y-13859888D02*
X9589229Y-13821793D01*
X9589229Y-13821793D02*
X9589229Y-13774174D01*
X9589229Y-13774174D02*
X9598753Y-13736079D01*
X9598753Y-13736079D02*
X9608277Y-13717031D01*
X9608277Y-13717031D02*
X9617801Y-13707508D01*
X9617801Y-13707508D02*
X9636848Y-13697984D01*
X9770182Y-13697984D02*
X9893991Y-13697984D01*
X9893991Y-13697984D02*
X9827325Y-13774174D01*
X9827325Y-13774174D02*
X9855896Y-13774174D01*
X9855896Y-13774174D02*
X9874944Y-13783698D01*
X9874944Y-13783698D02*
X9884468Y-13793222D01*
X9884468Y-13793222D02*
X9893991Y-13812269D01*
X9893991Y-13812269D02*
X9893991Y-13859888D01*
X9893991Y-13859888D02*
X9884468Y-13878936D01*
X9884468Y-13878936D02*
X9874944Y-13888460D01*
X9874944Y-13888460D02*
X9855896Y-13897984D01*
X9855896Y-13897984D02*
X9798753Y-13897984D01*
X9798753Y-13897984D02*
X9779706Y-13888460D01*
X9779706Y-13888460D02*
X9770182Y-13878936D01*
X9989229Y-13897984D02*
X10027325Y-13897984D01*
X10027325Y-13897984D02*
X10046372Y-13888460D01*
X10046372Y-13888460D02*
X10055896Y-13878936D01*
X10055896Y-13878936D02*
X10074944Y-13850365D01*
X10074944Y-13850365D02*
X10084468Y-13812269D01*
X10084468Y-13812269D02*
X10084468Y-13736079D01*
X10084468Y-13736079D02*
X10074944Y-13717031D01*
X10074944Y-13717031D02*
X10065420Y-13707508D01*
X10065420Y-13707508D02*
X10046372Y-13697984D01*
X10046372Y-13697984D02*
X10008277Y-13697984D01*
X10008277Y-13697984D02*
X9989229Y-13707508D01*
X9989229Y-13707508D02*
X9979706Y-13717031D01*
X9979706Y-13717031D02*
X9970182Y-13736079D01*
X9970182Y-13736079D02*
X9970182Y-13783698D01*
X9970182Y-13783698D02*
X9979706Y-13802746D01*
X9979706Y-13802746D02*
X9989229Y-13812269D01*
X9989229Y-13812269D02*
X10008277Y-13821793D01*
X10008277Y-13821793D02*
X10046372Y-13821793D01*
X10046372Y-13821793D02*
X10065420Y-13812269D01*
X10065420Y-13812269D02*
X10074944Y-13802746D01*
X10074944Y-13802746D02*
X10084468Y-13783698D01*
X10255896Y-13764650D02*
X10255896Y-13897984D01*
X10208277Y-13688460D02*
X10160658Y-13831317D01*
X10160658Y-13831317D02*
X10284468Y-13831317D01*
X10351134Y-13697984D02*
X10351134Y-13736079D01*
X10427325Y-13697984D02*
X10427325Y-13736079D01*
X10722563Y-13974174D02*
X10713039Y-13964650D01*
X10713039Y-13964650D02*
X10693991Y-13936079D01*
X10693991Y-13936079D02*
X10684468Y-13917031D01*
X10684468Y-13917031D02*
X10674944Y-13888460D01*
X10674944Y-13888460D02*
X10665420Y-13840841D01*
X10665420Y-13840841D02*
X10665420Y-13802746D01*
X10665420Y-13802746D02*
X10674944Y-13755127D01*
X10674944Y-13755127D02*
X10684468Y-13726555D01*
X10684468Y-13726555D02*
X10693991Y-13707508D01*
X10693991Y-13707508D02*
X10713039Y-13678936D01*
X10713039Y-13678936D02*
X10722563Y-13669412D01*
X10789230Y-13717031D02*
X10798753Y-13707508D01*
X10798753Y-13707508D02*
X10817801Y-13697984D01*
X10817801Y-13697984D02*
X10865420Y-13697984D01*
X10865420Y-13697984D02*
X10884468Y-13707508D01*
X10884468Y-13707508D02*
X10893991Y-13717031D01*
X10893991Y-13717031D02*
X10903515Y-13736079D01*
X10903515Y-13736079D02*
X10903515Y-13755127D01*
X10903515Y-13755127D02*
X10893991Y-13783698D01*
X10893991Y-13783698D02*
X10779706Y-13897984D01*
X10779706Y-13897984D02*
X10903515Y-13897984D01*
X11017801Y-13783698D02*
X10998753Y-13774174D01*
X10998753Y-13774174D02*
X10989230Y-13764650D01*
X10989230Y-13764650D02*
X10979706Y-13745603D01*
X10979706Y-13745603D02*
X10979706Y-13736079D01*
X10979706Y-13736079D02*
X10989230Y-13717031D01*
X10989230Y-13717031D02*
X10998753Y-13707508D01*
X10998753Y-13707508D02*
X11017801Y-13697984D01*
X11017801Y-13697984D02*
X11055896Y-13697984D01*
X11055896Y-13697984D02*
X11074944Y-13707508D01*
X11074944Y-13707508D02*
X11084468Y-13717031D01*
X11084468Y-13717031D02*
X11093991Y-13736079D01*
X11093991Y-13736079D02*
X11093991Y-13745603D01*
X11093991Y-13745603D02*
X11084468Y-13764650D01*
X11084468Y-13764650D02*
X11074944Y-13774174D01*
X11074944Y-13774174D02*
X11055896Y-13783698D01*
X11055896Y-13783698D02*
X11017801Y-13783698D01*
X11017801Y-13783698D02*
X10998753Y-13793222D01*
X10998753Y-13793222D02*
X10989230Y-13802746D01*
X10989230Y-13802746D02*
X10979706Y-13821793D01*
X10979706Y-13821793D02*
X10979706Y-13859888D01*
X10979706Y-13859888D02*
X10989230Y-13878936D01*
X10989230Y-13878936D02*
X10998753Y-13888460D01*
X10998753Y-13888460D02*
X11017801Y-13897984D01*
X11017801Y-13897984D02*
X11055896Y-13897984D01*
X11055896Y-13897984D02*
X11074944Y-13888460D01*
X11074944Y-13888460D02*
X11084468Y-13878936D01*
X11084468Y-13878936D02*
X11093991Y-13859888D01*
X11093991Y-13859888D02*
X11093991Y-13821793D01*
X11093991Y-13821793D02*
X11084468Y-13802746D01*
X11084468Y-13802746D02*
X11074944Y-13793222D01*
X11074944Y-13793222D02*
X11055896Y-13783698D01*
X11332087Y-13897984D02*
X11332087Y-13697984D01*
X11417801Y-13897984D02*
X11417801Y-13793222D01*
X11417801Y-13793222D02*
X11408277Y-13774174D01*
X11408277Y-13774174D02*
X11389230Y-13764650D01*
X11389230Y-13764650D02*
X11360658Y-13764650D01*
X11360658Y-13764650D02*
X11341610Y-13774174D01*
X11341610Y-13774174D02*
X11332087Y-13783698D01*
X11541610Y-13897984D02*
X11522563Y-13888460D01*
X11522563Y-13888460D02*
X11513039Y-13878936D01*
X11513039Y-13878936D02*
X11503515Y-13859888D01*
X11503515Y-13859888D02*
X11503515Y-13802746D01*
X11503515Y-13802746D02*
X11513039Y-13783698D01*
X11513039Y-13783698D02*
X11522563Y-13774174D01*
X11522563Y-13774174D02*
X11541610Y-13764650D01*
X11541610Y-13764650D02*
X11570182Y-13764650D01*
X11570182Y-13764650D02*
X11589230Y-13774174D01*
X11589230Y-13774174D02*
X11598753Y-13783698D01*
X11598753Y-13783698D02*
X11608277Y-13802746D01*
X11608277Y-13802746D02*
X11608277Y-13859888D01*
X11608277Y-13859888D02*
X11598753Y-13878936D01*
X11598753Y-13878936D02*
X11589230Y-13888460D01*
X11589230Y-13888460D02*
X11570182Y-13897984D01*
X11570182Y-13897984D02*
X11541610Y-13897984D01*
X11722563Y-13897984D02*
X11703515Y-13888460D01*
X11703515Y-13888460D02*
X11693991Y-13869412D01*
X11693991Y-13869412D02*
X11693991Y-13697984D01*
X11874944Y-13888460D02*
X11855896Y-13897984D01*
X11855896Y-13897984D02*
X11817801Y-13897984D01*
X11817801Y-13897984D02*
X11798753Y-13888460D01*
X11798753Y-13888460D02*
X11789230Y-13869412D01*
X11789230Y-13869412D02*
X11789230Y-13793222D01*
X11789230Y-13793222D02*
X11798753Y-13774174D01*
X11798753Y-13774174D02*
X11817801Y-13764650D01*
X11817801Y-13764650D02*
X11855896Y-13764650D01*
X11855896Y-13764650D02*
X11874944Y-13774174D01*
X11874944Y-13774174D02*
X11884468Y-13793222D01*
X11884468Y-13793222D02*
X11884468Y-13812269D01*
X11884468Y-13812269D02*
X11789230Y-13831317D01*
X11960658Y-13888460D02*
X11979706Y-13897984D01*
X11979706Y-13897984D02*
X12017801Y-13897984D01*
X12017801Y-13897984D02*
X12036849Y-13888460D01*
X12036849Y-13888460D02*
X12046372Y-13869412D01*
X12046372Y-13869412D02*
X12046372Y-13859888D01*
X12046372Y-13859888D02*
X12036849Y-13840841D01*
X12036849Y-13840841D02*
X12017801Y-13831317D01*
X12017801Y-13831317D02*
X11989230Y-13831317D01*
X11989230Y-13831317D02*
X11970182Y-13821793D01*
X11970182Y-13821793D02*
X11960658Y-13802746D01*
X11960658Y-13802746D02*
X11960658Y-13793222D01*
X11960658Y-13793222D02*
X11970182Y-13774174D01*
X11970182Y-13774174D02*
X11989230Y-13764650D01*
X11989230Y-13764650D02*
X12017801Y-13764650D01*
X12017801Y-13764650D02*
X12036849Y-13774174D01*
X12113039Y-13974174D02*
X12122563Y-13964650D01*
X12122563Y-13964650D02*
X12141611Y-13936079D01*
X12141611Y-13936079D02*
X12151134Y-13917031D01*
X12151134Y-13917031D02*
X12160658Y-13888460D01*
X12160658Y-13888460D02*
X12170182Y-13840841D01*
X12170182Y-13840841D02*
X12170182Y-13802746D01*
X12170182Y-13802746D02*
X12160658Y-13755127D01*
X12160658Y-13755127D02*
X12151134Y-13726555D01*
X12151134Y-13726555D02*
X12141611Y-13707508D01*
X12141611Y-13707508D02*
X12122563Y-13678936D01*
X12122563Y-13678936D02*
X12113039Y-13669412D01*
D13*
X7077500Y-14000500D02*
X7077500Y-14140500D01*
X7007500Y-14070500D02*
X7147500Y-14070500D01*
D11*
X7513039Y-14161984D02*
X7398753Y-14161984D01*
X7455896Y-14161984D02*
X7455896Y-13961984D01*
X7455896Y-13961984D02*
X7436848Y-13990555D01*
X7436848Y-13990555D02*
X7417801Y-14009603D01*
X7417801Y-14009603D02*
X7398753Y-14019127D01*
X7598753Y-14142936D02*
X7608277Y-14152460D01*
X7608277Y-14152460D02*
X7598753Y-14161984D01*
X7598753Y-14161984D02*
X7589229Y-14152460D01*
X7589229Y-14152460D02*
X7598753Y-14142936D01*
X7598753Y-14142936D02*
X7598753Y-14161984D01*
X7779705Y-14028650D02*
X7779705Y-14161984D01*
X7732086Y-13952460D02*
X7684467Y-14095317D01*
X7684467Y-14095317D02*
X7808277Y-14095317D01*
X7922562Y-13961984D02*
X7941610Y-13961984D01*
X7941610Y-13961984D02*
X7960658Y-13971508D01*
X7960658Y-13971508D02*
X7970182Y-13981031D01*
X7970182Y-13981031D02*
X7979705Y-14000079D01*
X7979705Y-14000079D02*
X7989229Y-14038174D01*
X7989229Y-14038174D02*
X7989229Y-14085793D01*
X7989229Y-14085793D02*
X7979705Y-14123888D01*
X7979705Y-14123888D02*
X7970182Y-14142936D01*
X7970182Y-14142936D02*
X7960658Y-14152460D01*
X7960658Y-14152460D02*
X7941610Y-14161984D01*
X7941610Y-14161984D02*
X7922562Y-14161984D01*
X7922562Y-14161984D02*
X7903515Y-14152460D01*
X7903515Y-14152460D02*
X7893991Y-14142936D01*
X7893991Y-14142936D02*
X7884467Y-14123888D01*
X7884467Y-14123888D02*
X7874943Y-14085793D01*
X7874943Y-14085793D02*
X7874943Y-14038174D01*
X7874943Y-14038174D02*
X7884467Y-14000079D01*
X7884467Y-14000079D02*
X7893991Y-13981031D01*
X7893991Y-13981031D02*
X7903515Y-13971508D01*
X7903515Y-13971508D02*
X7922562Y-13961984D01*
X8113039Y-13961984D02*
X8132086Y-13961984D01*
X8132086Y-13961984D02*
X8151134Y-13971508D01*
X8151134Y-13971508D02*
X8160658Y-13981031D01*
X8160658Y-13981031D02*
X8170182Y-14000079D01*
X8170182Y-14000079D02*
X8179705Y-14038174D01*
X8179705Y-14038174D02*
X8179705Y-14085793D01*
X8179705Y-14085793D02*
X8170182Y-14123888D01*
X8170182Y-14123888D02*
X8160658Y-14142936D01*
X8160658Y-14142936D02*
X8151134Y-14152460D01*
X8151134Y-14152460D02*
X8132086Y-14161984D01*
X8132086Y-14161984D02*
X8113039Y-14161984D01*
X8113039Y-14161984D02*
X8093991Y-14152460D01*
X8093991Y-14152460D02*
X8084467Y-14142936D01*
X8084467Y-14142936D02*
X8074943Y-14123888D01*
X8074943Y-14123888D02*
X8065420Y-14085793D01*
X8065420Y-14085793D02*
X8065420Y-14038174D01*
X8065420Y-14038174D02*
X8074943Y-14000079D01*
X8074943Y-14000079D02*
X8084467Y-13981031D01*
X8084467Y-13981031D02*
X8093991Y-13971508D01*
X8093991Y-13971508D02*
X8113039Y-13961984D01*
X8265420Y-14161984D02*
X8265420Y-14028650D01*
X8265420Y-14047698D02*
X8274943Y-14038174D01*
X8274943Y-14038174D02*
X8293991Y-14028650D01*
X8293991Y-14028650D02*
X8322563Y-14028650D01*
X8322563Y-14028650D02*
X8341610Y-14038174D01*
X8341610Y-14038174D02*
X8351134Y-14057222D01*
X8351134Y-14057222D02*
X8351134Y-14161984D01*
X8351134Y-14057222D02*
X8360658Y-14038174D01*
X8360658Y-14038174D02*
X8379705Y-14028650D01*
X8379705Y-14028650D02*
X8408277Y-14028650D01*
X8408277Y-14028650D02*
X8427325Y-14038174D01*
X8427325Y-14038174D02*
X8436848Y-14057222D01*
X8436848Y-14057222D02*
X8436848Y-14161984D01*
X8532086Y-14161984D02*
X8532086Y-14028650D01*
X8532086Y-14047698D02*
X8541610Y-14038174D01*
X8541610Y-14038174D02*
X8560658Y-14028650D01*
X8560658Y-14028650D02*
X8589229Y-14028650D01*
X8589229Y-14028650D02*
X8608277Y-14038174D01*
X8608277Y-14038174D02*
X8617801Y-14057222D01*
X8617801Y-14057222D02*
X8617801Y-14161984D01*
X8617801Y-14057222D02*
X8627325Y-14038174D01*
X8627325Y-14038174D02*
X8646372Y-14028650D01*
X8646372Y-14028650D02*
X8674944Y-14028650D01*
X8674944Y-14028650D02*
X8693991Y-14038174D01*
X8693991Y-14038174D02*
X8703515Y-14057222D01*
X8703515Y-14057222D02*
X8703515Y-14161984D01*
X9093991Y-13952460D02*
X8922563Y-14209603D01*
X9351134Y-13961984D02*
X9370182Y-13961984D01*
X9370182Y-13961984D02*
X9389229Y-13971508D01*
X9389229Y-13971508D02*
X9398753Y-13981031D01*
X9398753Y-13981031D02*
X9408277Y-14000079D01*
X9408277Y-14000079D02*
X9417801Y-14038174D01*
X9417801Y-14038174D02*
X9417801Y-14085793D01*
X9417801Y-14085793D02*
X9408277Y-14123888D01*
X9408277Y-14123888D02*
X9398753Y-14142936D01*
X9398753Y-14142936D02*
X9389229Y-14152460D01*
X9389229Y-14152460D02*
X9370182Y-14161984D01*
X9370182Y-14161984D02*
X9351134Y-14161984D01*
X9351134Y-14161984D02*
X9332087Y-14152460D01*
X9332087Y-14152460D02*
X9322563Y-14142936D01*
X9322563Y-14142936D02*
X9313039Y-14123888D01*
X9313039Y-14123888D02*
X9303515Y-14085793D01*
X9303515Y-14085793D02*
X9303515Y-14038174D01*
X9303515Y-14038174D02*
X9313039Y-14000079D01*
X9313039Y-14000079D02*
X9322563Y-13981031D01*
X9322563Y-13981031D02*
X9332087Y-13971508D01*
X9332087Y-13971508D02*
X9351134Y-13961984D01*
X9503515Y-14142936D02*
X9513039Y-14152460D01*
X9513039Y-14152460D02*
X9503515Y-14161984D01*
X9503515Y-14161984D02*
X9493991Y-14152460D01*
X9493991Y-14152460D02*
X9503515Y-14142936D01*
X9503515Y-14142936D02*
X9503515Y-14161984D01*
X9636848Y-13961984D02*
X9655896Y-13961984D01*
X9655896Y-13961984D02*
X9674944Y-13971508D01*
X9674944Y-13971508D02*
X9684468Y-13981031D01*
X9684468Y-13981031D02*
X9693991Y-14000079D01*
X9693991Y-14000079D02*
X9703515Y-14038174D01*
X9703515Y-14038174D02*
X9703515Y-14085793D01*
X9703515Y-14085793D02*
X9693991Y-14123888D01*
X9693991Y-14123888D02*
X9684468Y-14142936D01*
X9684468Y-14142936D02*
X9674944Y-14152460D01*
X9674944Y-14152460D02*
X9655896Y-14161984D01*
X9655896Y-14161984D02*
X9636848Y-14161984D01*
X9636848Y-14161984D02*
X9617801Y-14152460D01*
X9617801Y-14152460D02*
X9608277Y-14142936D01*
X9608277Y-14142936D02*
X9598753Y-14123888D01*
X9598753Y-14123888D02*
X9589229Y-14085793D01*
X9589229Y-14085793D02*
X9589229Y-14038174D01*
X9589229Y-14038174D02*
X9598753Y-14000079D01*
X9598753Y-14000079D02*
X9608277Y-13981031D01*
X9608277Y-13981031D02*
X9617801Y-13971508D01*
X9617801Y-13971508D02*
X9636848Y-13961984D01*
X9884468Y-13961984D02*
X9789229Y-13961984D01*
X9789229Y-13961984D02*
X9779706Y-14057222D01*
X9779706Y-14057222D02*
X9789229Y-14047698D01*
X9789229Y-14047698D02*
X9808277Y-14038174D01*
X9808277Y-14038174D02*
X9855896Y-14038174D01*
X9855896Y-14038174D02*
X9874944Y-14047698D01*
X9874944Y-14047698D02*
X9884468Y-14057222D01*
X9884468Y-14057222D02*
X9893991Y-14076269D01*
X9893991Y-14076269D02*
X9893991Y-14123888D01*
X9893991Y-14123888D02*
X9884468Y-14142936D01*
X9884468Y-14142936D02*
X9874944Y-14152460D01*
X9874944Y-14152460D02*
X9855896Y-14161984D01*
X9855896Y-14161984D02*
X9808277Y-14161984D01*
X9808277Y-14161984D02*
X9789229Y-14152460D01*
X9789229Y-14152460D02*
X9779706Y-14142936D01*
X10074944Y-13961984D02*
X9979706Y-13961984D01*
X9979706Y-13961984D02*
X9970182Y-14057222D01*
X9970182Y-14057222D02*
X9979706Y-14047698D01*
X9979706Y-14047698D02*
X9998753Y-14038174D01*
X9998753Y-14038174D02*
X10046372Y-14038174D01*
X10046372Y-14038174D02*
X10065420Y-14047698D01*
X10065420Y-14047698D02*
X10074944Y-14057222D01*
X10074944Y-14057222D02*
X10084468Y-14076269D01*
X10084468Y-14076269D02*
X10084468Y-14123888D01*
X10084468Y-14123888D02*
X10074944Y-14142936D01*
X10074944Y-14142936D02*
X10065420Y-14152460D01*
X10065420Y-14152460D02*
X10046372Y-14161984D01*
X10046372Y-14161984D02*
X9998753Y-14161984D01*
X9998753Y-14161984D02*
X9979706Y-14152460D01*
X9979706Y-14152460D02*
X9970182Y-14142936D01*
X10274944Y-14161984D02*
X10160658Y-14161984D01*
X10217801Y-14161984D02*
X10217801Y-13961984D01*
X10217801Y-13961984D02*
X10198753Y-13990555D01*
X10198753Y-13990555D02*
X10179706Y-14009603D01*
X10179706Y-14009603D02*
X10160658Y-14019127D01*
X10351134Y-13961984D02*
X10351134Y-14000079D01*
X10427325Y-13961984D02*
X10427325Y-14000079D01*
X10722563Y-14238174D02*
X10713039Y-14228650D01*
X10713039Y-14228650D02*
X10693991Y-14200079D01*
X10693991Y-14200079D02*
X10684468Y-14181031D01*
X10684468Y-14181031D02*
X10674944Y-14152460D01*
X10674944Y-14152460D02*
X10665420Y-14104841D01*
X10665420Y-14104841D02*
X10665420Y-14066746D01*
X10665420Y-14066746D02*
X10674944Y-14019127D01*
X10674944Y-14019127D02*
X10684468Y-13990555D01*
X10684468Y-13990555D02*
X10693991Y-13971508D01*
X10693991Y-13971508D02*
X10713039Y-13942936D01*
X10713039Y-13942936D02*
X10722563Y-13933412D01*
X10779706Y-13961984D02*
X10903515Y-13961984D01*
X10903515Y-13961984D02*
X10836849Y-14038174D01*
X10836849Y-14038174D02*
X10865420Y-14038174D01*
X10865420Y-14038174D02*
X10884468Y-14047698D01*
X10884468Y-14047698D02*
X10893991Y-14057222D01*
X10893991Y-14057222D02*
X10903515Y-14076269D01*
X10903515Y-14076269D02*
X10903515Y-14123888D01*
X10903515Y-14123888D02*
X10893991Y-14142936D01*
X10893991Y-14142936D02*
X10884468Y-14152460D01*
X10884468Y-14152460D02*
X10865420Y-14161984D01*
X10865420Y-14161984D02*
X10808277Y-14161984D01*
X10808277Y-14161984D02*
X10789230Y-14152460D01*
X10789230Y-14152460D02*
X10779706Y-14142936D01*
X11027325Y-13961984D02*
X11046372Y-13961984D01*
X11046372Y-13961984D02*
X11065420Y-13971508D01*
X11065420Y-13971508D02*
X11074944Y-13981031D01*
X11074944Y-13981031D02*
X11084468Y-14000079D01*
X11084468Y-14000079D02*
X11093991Y-14038174D01*
X11093991Y-14038174D02*
X11093991Y-14085793D01*
X11093991Y-14085793D02*
X11084468Y-14123888D01*
X11084468Y-14123888D02*
X11074944Y-14142936D01*
X11074944Y-14142936D02*
X11065420Y-14152460D01*
X11065420Y-14152460D02*
X11046372Y-14161984D01*
X11046372Y-14161984D02*
X11027325Y-14161984D01*
X11027325Y-14161984D02*
X11008277Y-14152460D01*
X11008277Y-14152460D02*
X10998753Y-14142936D01*
X10998753Y-14142936D02*
X10989230Y-14123888D01*
X10989230Y-14123888D02*
X10979706Y-14085793D01*
X10979706Y-14085793D02*
X10979706Y-14038174D01*
X10979706Y-14038174D02*
X10989230Y-14000079D01*
X10989230Y-14000079D02*
X10998753Y-13981031D01*
X10998753Y-13981031D02*
X11008277Y-13971508D01*
X11008277Y-13971508D02*
X11027325Y-13961984D01*
X11332087Y-14161984D02*
X11332087Y-13961984D01*
X11417801Y-14161984D02*
X11417801Y-14057222D01*
X11417801Y-14057222D02*
X11408277Y-14038174D01*
X11408277Y-14038174D02*
X11389230Y-14028650D01*
X11389230Y-14028650D02*
X11360658Y-14028650D01*
X11360658Y-14028650D02*
X11341610Y-14038174D01*
X11341610Y-14038174D02*
X11332087Y-14047698D01*
X11541610Y-14161984D02*
X11522563Y-14152460D01*
X11522563Y-14152460D02*
X11513039Y-14142936D01*
X11513039Y-14142936D02*
X11503515Y-14123888D01*
X11503515Y-14123888D02*
X11503515Y-14066746D01*
X11503515Y-14066746D02*
X11513039Y-14047698D01*
X11513039Y-14047698D02*
X11522563Y-14038174D01*
X11522563Y-14038174D02*
X11541610Y-14028650D01*
X11541610Y-14028650D02*
X11570182Y-14028650D01*
X11570182Y-14028650D02*
X11589230Y-14038174D01*
X11589230Y-14038174D02*
X11598753Y-14047698D01*
X11598753Y-14047698D02*
X11608277Y-14066746D01*
X11608277Y-14066746D02*
X11608277Y-14123888D01*
X11608277Y-14123888D02*
X11598753Y-14142936D01*
X11598753Y-14142936D02*
X11589230Y-14152460D01*
X11589230Y-14152460D02*
X11570182Y-14161984D01*
X11570182Y-14161984D02*
X11541610Y-14161984D01*
X11722563Y-14161984D02*
X11703515Y-14152460D01*
X11703515Y-14152460D02*
X11693991Y-14133412D01*
X11693991Y-14133412D02*
X11693991Y-13961984D01*
X11874944Y-14152460D02*
X11855896Y-14161984D01*
X11855896Y-14161984D02*
X11817801Y-14161984D01*
X11817801Y-14161984D02*
X11798753Y-14152460D01*
X11798753Y-14152460D02*
X11789230Y-14133412D01*
X11789230Y-14133412D02*
X11789230Y-14057222D01*
X11789230Y-14057222D02*
X11798753Y-14038174D01*
X11798753Y-14038174D02*
X11817801Y-14028650D01*
X11817801Y-14028650D02*
X11855896Y-14028650D01*
X11855896Y-14028650D02*
X11874944Y-14038174D01*
X11874944Y-14038174D02*
X11884468Y-14057222D01*
X11884468Y-14057222D02*
X11884468Y-14076269D01*
X11884468Y-14076269D02*
X11789230Y-14095317D01*
X11960658Y-14152460D02*
X11979706Y-14161984D01*
X11979706Y-14161984D02*
X12017801Y-14161984D01*
X12017801Y-14161984D02*
X12036849Y-14152460D01*
X12036849Y-14152460D02*
X12046372Y-14133412D01*
X12046372Y-14133412D02*
X12046372Y-14123888D01*
X12046372Y-14123888D02*
X12036849Y-14104841D01*
X12036849Y-14104841D02*
X12017801Y-14095317D01*
X12017801Y-14095317D02*
X11989230Y-14095317D01*
X11989230Y-14095317D02*
X11970182Y-14085793D01*
X11970182Y-14085793D02*
X11960658Y-14066746D01*
X11960658Y-14066746D02*
X11960658Y-14057222D01*
X11960658Y-14057222D02*
X11970182Y-14038174D01*
X11970182Y-14038174D02*
X11989230Y-14028650D01*
X11989230Y-14028650D02*
X12017801Y-14028650D01*
X12017801Y-14028650D02*
X12036849Y-14038174D01*
X12113039Y-14238174D02*
X12122563Y-14228650D01*
X12122563Y-14228650D02*
X12141611Y-14200079D01*
X12141611Y-14200079D02*
X12151134Y-14181031D01*
X12151134Y-14181031D02*
X12160658Y-14152460D01*
X12160658Y-14152460D02*
X12170182Y-14104841D01*
X12170182Y-14104841D02*
X12170182Y-14066746D01*
X12170182Y-14066746D02*
X12160658Y-14019127D01*
X12160658Y-14019127D02*
X12151134Y-13990555D01*
X12151134Y-13990555D02*
X12141611Y-13971508D01*
X12141611Y-13971508D02*
X12122563Y-13942936D01*
X12122563Y-13942936D02*
X12113039Y-13933412D01*
M02*
