G04 #@! TF.GenerationSoftware,KiCad,Pcbnew,9.0.7*
G04 #@! TF.CreationDate,2026-04-14T19:05:39-06:00*
G04 #@! TF.ProjectId,ArduLogger,41726475-4c6f-4676-9765-722e6b696361,rev?*
G04 #@! TF.SameCoordinates,Original*
G04 #@! TF.FileFunction,Legend,Bot*
G04 #@! TF.FilePolarity,Positive*
%FSLAX46Y46*%
G04 Gerber Fmt 4.6, Leading zero omitted, Abs format (unit mm)*
G04 Created by KiCad (PCBNEW 9.0.7) date 2026-04-14 19:05:39*
%MOMM*%
%LPD*%
G01*
G04 APERTURE LIST*
G04 Aperture macros list*
%AMRoundRect*
0 Rectangle with rounded corners*
0 $1 Rounding radius*
0 $2 $3 $4 $5 $6 $7 $8 $9 X,Y pos of 4 corners*
0 Add a 4 corners polygon primitive as box body*
4,1,4,$2,$3,$4,$5,$6,$7,$8,$9,$2,$3,0*
0 Add four circle primitives for the rounded corners*
1,1,$1+$1,$2,$3*
1,1,$1+$1,$4,$5*
1,1,$1+$1,$6,$7*
1,1,$1+$1,$8,$9*
0 Add four rect primitives between the rounded corners*
20,1,$1+$1,$2,$3,$4,$5,0*
20,1,$1+$1,$4,$5,$6,$7,0*
20,1,$1+$1,$6,$7,$8,$9,0*
20,1,$1+$1,$8,$9,$2,$3,0*%
G04 Aperture macros list end*
%ADD10RoundRect,0.250000X-1.050000X-0.550000X1.050000X-0.550000X1.050000X0.550000X-1.050000X0.550000X0*%
%ADD11O,2.600000X1.600000*%
%ADD12RoundRect,0.249999X1.550001X-0.790001X1.550001X0.790001X-1.550001X0.790001X-1.550001X-0.790001X0*%
%ADD13O,3.600000X2.080000*%
%ADD14RoundRect,0.250000X1.550000X-0.750000X1.550000X0.750000X-1.550000X0.750000X-1.550000X-0.750000X0*%
%ADD15O,3.600000X2.000000*%
G04 APERTURE END LIST*
%LPC*%
D10*
G04 #@! TO.C,A2*
X129800000Y-38000000D03*
D11*
X129800000Y-40540000D03*
X129800000Y-43080000D03*
X129800000Y-45620000D03*
X129800000Y-48160000D03*
X129800000Y-50700000D03*
X129800000Y-53240000D03*
X129800000Y-55780000D03*
X129800000Y-58320000D03*
X129800000Y-60860000D03*
X129800000Y-63400000D03*
X129800000Y-65940000D03*
X129800000Y-68480000D03*
X129800000Y-71020000D03*
X129800000Y-73560000D03*
X129800000Y-76100000D03*
X149520000Y-76100000D03*
X149520000Y-73560000D03*
X149520000Y-71020000D03*
X149520000Y-68480000D03*
X149520000Y-65940000D03*
X149520000Y-63400000D03*
X149520000Y-60860000D03*
X149520000Y-58320000D03*
X149520000Y-55780000D03*
X149520000Y-53240000D03*
X149520000Y-50700000D03*
X149520000Y-48160000D03*
G04 #@! TD*
D12*
G04 #@! TO.C,J3*
X112500000Y-107000000D03*
D13*
X112500000Y-101920000D03*
X112500000Y-96840000D03*
X112500000Y-91760000D03*
X112500000Y-86680000D03*
X112500000Y-81600000D03*
X112500000Y-76520000D03*
X112500000Y-71440000D03*
X112500000Y-66360000D03*
X112500000Y-61280000D03*
X112500000Y-56200000D03*
X112500000Y-51120000D03*
X112500000Y-46040000D03*
X112500000Y-40960000D03*
X112500000Y-35880000D03*
G04 #@! TD*
D14*
G04 #@! TO.C,J2*
X84000000Y-106000000D03*
D15*
X84000000Y-101000000D03*
X84000000Y-96000000D03*
X84000000Y-91000000D03*
X84000000Y-86000000D03*
X84000000Y-81000000D03*
X84000000Y-76000000D03*
X84000000Y-71000000D03*
X84000000Y-66000000D03*
X84000000Y-61000000D03*
X84000000Y-56000000D03*
X84000000Y-51000000D03*
X84000000Y-46000000D03*
X84000000Y-41000000D03*
X84000000Y-36000000D03*
G04 #@! TD*
%LPD*%
M02*
