%TF.GenerationSoftware,KiCad,Pcbnew,9.0.7*%
%TF.CreationDate,2026-04-14T19:05:39-06:00*%
%TF.ProjectId,ArduLogger,41726475-4c6f-4676-9765-722e6b696361,rev?*%
%TF.SameCoordinates,Original*%
%TF.FileFunction,Drillmap*%
%TF.FilePolarity,Positive*%
%FSLAX45Y45*%
G04 Gerber Fmt 4.5, Leading zero omitted, Abs format (unit mm)*
G04 Created by KiCad (PCBNEW 9.0.7) date 2026-04-14 19:05:39*
%MOMM*%
%LPD*%
G01*
G04 APERTURE LIST*
%ADD10C,0.050000*%
%ADD11C,0.200000*%
G04 APERTURE END LIST*
D10*
X7900000Y-12400000D02*
G75*
G02*
X7400000Y-12400000I-250000J0D01*
G01*
X7400000Y-12400000D02*
G75*
G02*
X7900000Y-12400000I250000J0D01*
G01*
X7150000Y-3000000D02*
X16200000Y-3000000D01*
X16200000Y-12900000D01*
X7150000Y-12900000D01*
X7150000Y-3000000D01*
X16000000Y-3500000D02*
G75*
G02*
X15500000Y-3500000I-250000J0D01*
G01*
X15500000Y-3500000D02*
G75*
G02*
X16000000Y-3500000I250000J0D01*
G01*
X16050000Y-12400000D02*
G75*
G02*
X15550000Y-12400000I-250000J0D01*
G01*
X15550000Y-12400000D02*
G75*
G02*
X16050000Y-12400000I250000J0D01*
G01*
D11*
X7408277Y-13213984D02*
X7408277Y-13013984D01*
X7408277Y-13013984D02*
X7455896Y-13013984D01*
X7455896Y-13013984D02*
X7484467Y-13023508D01*
X7484467Y-13023508D02*
X7503515Y-13042555D01*
X7503515Y-13042555D02*
X7513039Y-13061603D01*
X7513039Y-13061603D02*
X7522562Y-13099698D01*
X7522562Y-13099698D02*
X7522562Y-13128269D01*
X7522562Y-13128269D02*
X7513039Y-13166365D01*
X7513039Y-13166365D02*
X7503515Y-13185412D01*
X7503515Y-13185412D02*
X7484467Y-13204460D01*
X7484467Y-13204460D02*
X7455896Y-13213984D01*
X7455896Y-13213984D02*
X7408277Y-13213984D01*
X7608277Y-13213984D02*
X7608277Y-13080650D01*
X7608277Y-13118746D02*
X7617801Y-13099698D01*
X7617801Y-13099698D02*
X7627324Y-13090174D01*
X7627324Y-13090174D02*
X7646372Y-13080650D01*
X7646372Y-13080650D02*
X7665420Y-13080650D01*
X7732086Y-13213984D02*
X7732086Y-13080650D01*
X7732086Y-13013984D02*
X7722562Y-13023508D01*
X7722562Y-13023508D02*
X7732086Y-13033031D01*
X7732086Y-13033031D02*
X7741610Y-13023508D01*
X7741610Y-13023508D02*
X7732086Y-13013984D01*
X7732086Y-13013984D02*
X7732086Y-13033031D01*
X7855896Y-13213984D02*
X7836848Y-13204460D01*
X7836848Y-13204460D02*
X7827324Y-13185412D01*
X7827324Y-13185412D02*
X7827324Y-13013984D01*
X7960658Y-13213984D02*
X7941610Y-13204460D01*
X7941610Y-13204460D02*
X7932086Y-13185412D01*
X7932086Y-13185412D02*
X7932086Y-13013984D01*
X8189229Y-13213984D02*
X8189229Y-13013984D01*
X8189229Y-13013984D02*
X8255896Y-13156841D01*
X8255896Y-13156841D02*
X8322562Y-13013984D01*
X8322562Y-13013984D02*
X8322562Y-13213984D01*
X8503515Y-13213984D02*
X8503515Y-13109222D01*
X8503515Y-13109222D02*
X8493991Y-13090174D01*
X8493991Y-13090174D02*
X8474944Y-13080650D01*
X8474944Y-13080650D02*
X8436848Y-13080650D01*
X8436848Y-13080650D02*
X8417801Y-13090174D01*
X8503515Y-13204460D02*
X8484467Y-13213984D01*
X8484467Y-13213984D02*
X8436848Y-13213984D01*
X8436848Y-13213984D02*
X8417801Y-13204460D01*
X8417801Y-13204460D02*
X8408277Y-13185412D01*
X8408277Y-13185412D02*
X8408277Y-13166365D01*
X8408277Y-13166365D02*
X8417801Y-13147317D01*
X8417801Y-13147317D02*
X8436848Y-13137793D01*
X8436848Y-13137793D02*
X8484467Y-13137793D01*
X8484467Y-13137793D02*
X8503515Y-13128269D01*
X8598753Y-13080650D02*
X8598753Y-13280650D01*
X8598753Y-13090174D02*
X8617801Y-13080650D01*
X8617801Y-13080650D02*
X8655896Y-13080650D01*
X8655896Y-13080650D02*
X8674944Y-13090174D01*
X8674944Y-13090174D02*
X8684467Y-13099698D01*
X8684467Y-13099698D02*
X8693991Y-13118746D01*
X8693991Y-13118746D02*
X8693991Y-13175888D01*
X8693991Y-13175888D02*
X8684467Y-13194936D01*
X8684467Y-13194936D02*
X8674944Y-13204460D01*
X8674944Y-13204460D02*
X8655896Y-13213984D01*
X8655896Y-13213984D02*
X8617801Y-13213984D01*
X8617801Y-13213984D02*
X8598753Y-13204460D01*
X8779705Y-13194936D02*
X8789229Y-13204460D01*
X8789229Y-13204460D02*
X8779705Y-13213984D01*
X8779705Y-13213984D02*
X8770182Y-13204460D01*
X8770182Y-13204460D02*
X8779705Y-13194936D01*
X8779705Y-13194936D02*
X8779705Y-13213984D01*
X8779705Y-13090174D02*
X8789229Y-13099698D01*
X8789229Y-13099698D02*
X8779705Y-13109222D01*
X8779705Y-13109222D02*
X8770182Y-13099698D01*
X8770182Y-13099698D02*
X8779705Y-13090174D01*
X8779705Y-13090174D02*
X8779705Y-13109222D01*
M02*
